<svg height="512" viewBox="0 0 64 64" width="512" xmlns="http://www.w3.org/2000/svg"><g id="Layer_9" data-name="Layer 9"><path d="m16.38 54h-.14a3.61 3.61 0 0 1 -3.24-2v-.42a5 5 0 0 1 -4 0v.42a3.61 3.61 0 0 1 -3.24 2h-.14a3.62 3.62 0 0 0 -3.62 3.62v4.38h18v-4.38a3.62 3.62 0 0 0 -3.62-3.62z" fill="#fcd4a5"/><rect fill="#fcd4a5" height="12" rx="5" width="10" x="6" y="40"/><path d="m16.38 54h-.14a3.47 3.47 0 0 1 -1.07-.17l-.76.76a4.83 4.83 0 0 1 -6.82 0l-.76-.76a3.47 3.47 0 0 1 -1.07.17h-.14a3.62 3.62 0 0 0 -3.62 3.62v4.38h18v-4.38a3.62 3.62 0 0 0 -3.62-3.62z" fill="#e47c6f"/><path d="m36.38 54h-.14a3.61 3.61 0 0 1 -3.24-2v-.42a5 5 0 0 1 -4 0v.42a3.61 3.61 0 0 1 -3.24 2h-.14a3.62 3.62 0 0 0 -3.62 3.62v4.38h18v-4.38a3.62 3.62 0 0 0 -3.62-3.62z" fill="#fcd4a5"/><rect fill="#fcd4a5" height="12" rx="5" width="10" x="26" y="40"/><path d="m36.38 54h-.14a3.47 3.47 0 0 1 -1.07-.17l-.76.76a4.83 4.83 0 0 1 -6.82 0l-.76-.76a3.47 3.47 0 0 1 -1.07.17h-.14a3.62 3.62 0 0 0 -3.62 3.62v4.38h18v-4.38a3.62 3.62 0 0 0 -3.62-3.62z" fill="#e47c6f"/><path d="m2 2h52v34h-52z" fill="#ebf7fe"/><path d="m15 18h18a7 7 0 0 1 7 7v3a0 0 0 0 1 0 0h-32a0 0 0 0 1 0 0v-3a7 7 0 0 1 7-7z" fill="#f7d881"/><circle cx="33" cy="23" fill="#c1c8d1" r="2"/><path d="m62 41v-13a4 4 0 0 0 -4-4h-24v4h9a3 3 0 0 1 3 3v10z" fill="#e47c6f"/><path d="m34 24h-2a2 2 0 0 0 -2 2 2 2 0 0 0 2 2h2z" fill="#fcd4a5"/><path d="m46 41h12v17h-12z" fill="#a0a8b2"/><path d="m15 18h18a6.9 6.9 0 0 1 3.07.72l-3.51-10.43a3 3 0 0 0 -2.92-2.29h-11.28a3 3 0 0 0 -2.92 2.29l-3.51 10.43a6.9 6.9 0 0 1 3.07-.72z" fill="#c1c8d1"/><path d="m14.19 12h-3.19a2 2 0 0 0 0 4h1.85z" fill="#f7d881"/><path d="m37 12h-3.19l1.34 4h1.85a2 2 0 0 0 2-2 2 2 0 0 0 -2-2z" fill="#f7d881"/><path d="m10 28v2a2 2 0 0 0 2 2h4a2 2 0 0 0 2-2v-2z" fill="#c1c8d1"/><path d="m30 28v2a2 2 0 0 0 2 2h4a2 2 0 0 0 2-2v-2z" fill="#c1c8d1"/><path d="m15.44 8.29-.57 1.71h18.26l-.57-1.71a3 3 0 0 0 -2.92-2.29h-11.28a3 3 0 0 0 -2.92 2.29z" fill="#f7d881"/><circle cx="15" cy="23" fill="#c1c8d1" r="2"/><path d="m52 58h-6a2 2 0 0 0 -2 2v2h8z" fill="#c18e5c"/><path d="" fill="none" stroke="#000" stroke-linejoin="round" stroke-width="2"/><path d="m52 58h6a2 2 0 0 1 2 2v2h-8z" fill="#c18e5c"/><g fill="#fcd4a5"><path d="m57 16v3a5 5 0 0 1 -5 5 5 5 0 0 1 -5-5v-3h4l2-2 2 2z"/><path d="m47 19v-3h-1a2 2 0 0 0 0 4h1.1a5.47 5.47 0 0 1 -.1-1z"/><path d="m58 16h-1v3a5.47 5.47 0 0 1 -.1 1h1.1a2 2 0 0 0 0-4z"/></g><path d="m58 16a2 2 0 0 1 1 .28v-1.28a7 7 0 0 0 -14 0v1.28a2 2 0 0 1 1-.28h5l2-2 2 2z" fill="#c18e5c"/><path d="m49 24v1a3 3 0 0 0 3 3 3 3 0 0 0 3-3v-1z" fill="#fcd4a5"/><path d="m58 45h1a3 3 0 0 0 3-3v-1h-4z" fill="#fcd4a5"/><path d="m12 23a3 3 0 1 0 3-3 3 3 0 0 0 -3 3zm4 0a1 1 0 1 1 -1-1 1 1 0 0 1 1 1z"/><path d="m36.38 53h-.14a2.6 2.6 0 0 1 -2-1 6 6 0 0 0 2.76-5v-2a6 6 0 0 0 -12 0v2a6 6 0 0 0 2.77 5 2.6 2.6 0 0 1 -2 1h-.14a4.62 4.62 0 0 0 -4.63 4.62 4.62 4.62 0 0 0 -4.62-4.62h-.14a2.6 2.6 0 0 1 -2-1 6 6 0 0 0 2.76-5v-2a6 6 0 0 0 -12 0v2a6 6 0 0 0 2.77 5 2.6 2.6 0 0 1 -2 1h-.15a4.62 4.62 0 0 0 -4.62 4.62v4.38a1 1 0 0 0 1 1h18a1 1 0 0 0 1-1 1 1 0 0 0 1 1h18a1 1 0 0 0 1-1v-4.38a4.62 4.62 0 0 0 -4.62-4.62zm-29.38-8a4 4 0 0 1 8 0v2a4 4 0 0 1 -8 0zm4 8a5.92 5.92 0 0 0 1.34-.16 4.44 4.44 0 0 0 1.13 1.23 3.92 3.92 0 0 1 -4.94 0 4.44 4.44 0 0 0 1.13-1.23 5.92 5.92 0 0 0 1.34.16zm8 8h-2v-2h-2v2h-8v-2h-2v2h-2v-3.38a2.62 2.62 0 0 1 2.62-2.62h.14a4.77 4.77 0 0 0 .76-.07l.36.36a5.82 5.82 0 0 0 8.24 0l.36-.36a4.77 4.77 0 0 0 .76.07h.14a2.62 2.62 0 0 1 2.62 2.62zm8-16a4 4 0 0 1 8 0v2a4 4 0 0 1 -8 0zm4 8a5.92 5.92 0 0 0 1.34-.16 4.44 4.44 0 0 0 1.13 1.23 3.92 3.92 0 0 1 -4.94 0 4.44 4.44 0 0 0 1.13-1.23 5.92 5.92 0 0 0 1.34.16zm8 8h-2v-2h-2v2h-8v-2h-2v2h-2v-3.38a2.62 2.62 0 0 1 2.62-2.62h.14a4.77 4.77 0 0 0 .76-.07l.36.36a5.82 5.82 0 0 0 8.24 0l.36-.36a4.77 4.77 0 0 0 .76.07h.14a2.62 2.62 0 0 1 2.62 2.62z"/><path d="m58 23h-1.54a5.87 5.87 0 0 0 1.19-2h.35a3 3 0 0 0 2-5.22v-.78a8 8 0 0 0 -16 0v.78a3 3 0 0 0 2 5.22h.35a5.87 5.87 0 0 0 1.19 2h-6.8a8 8 0 0 0 -3.83-5l-.35-1h.44a3 3 0 0 0 0-6h-2.47l-1-2.95a4 4 0 0 0 -3.89-3.05h-11.28a4 4 0 0 0 -3.87 3l-1 3h-2.49a3 3 0 0 0 0 6h.44l-.35 1a8 8 0 0 0 -4.09 7v3a1 1 0 0 0 1 1h1v1a3 3 0 0 0 3 3h4a3 3 0 0 0 3-3v-1h8v-2h-18v-2a6 6 0 0 1 6-6h18a6 6 0 0 1 5.65 4h-2.65a3 3 0 0 0 -6 0 3.27 3.27 0 0 0 .09.7 3 3 0 0 0 1.91 5.3h5v1a1 1 0 0 1 -1 1h-4a1 1 0 0 1 -1-1h-2a3 3 0 0 0 3 3h4a3 3 0 0 0 3-3v-1h4a2 2 0 0 1 2 2v4h-42v-32h50v3h2v-4a1 1 0 0 0 -1-1h-52a1 1 0 0 0 -1 1v34a1 1 0 0 0 1 1h43v20.18a3 3 0 0 0 -2 2.82v2a1 1 0 0 0 1 1h16a1 1 0 0 0 1-1v-2a3 3 0 0 0 -2-2.82v-11.18a4 4 0 0 0 4-4v-14a5 5 0 0 0 -5-5zm-41 7a1 1 0 0 1 -1 1h-4a1 1 0 0 1 -1-1v-1h6zm20-17a1 1 0 0 1 0 2h-1.12l-.67-2zm-18.64-6h11.28a2 2 0 0 1 2 1.61l.13.39h-15.52l.16-.48a2 2 0 0 1 1.95-1.52zm-7.36 8a1 1 0 0 1 0-2h1.79l-.68 2zm4 2a7.48 7.48 0 0 0 -1.5.15l2.08-6.15h16.84l2.08 6.15a7.48 7.48 0 0 0 -1.5-.15zm39 8a2 2 0 0 1 -4 0zm4-6v-2a1 1 0 0 1 0 2zm-13-1a1 1 0 0 1 1-1v2a1 1 0 0 1 -1-1zm1-3a6 6 0 0 1 12 0h-2.59l-1.7-1.71a1 1 0 0 0 -1.42 0l-1.7 1.71zm2 4v-2h3a1 1 0 0 0 .71-.29l1.29-1.3 1.29 1.3a1 1 0 0 0 .71.29h1v2a4 4 0 0 1 -8 0zm-15 3a1 1 0 0 1 1 1h-2a1 1 0 0 1 1-1zm-2 4a1 1 0 0 1 1-1h1v2h-1a1 1 0 0 1 -1-1zm12 1h-8v-2h13a4 4 0 0 0 8 0h2a3 3 0 0 1 3 3v12h-2v-11h-2v11h-10v-9a4 4 0 0 0 -4-4zm8 34h-6v-1a1 1 0 0 1 1-1h5zm0-15v11h-4v-15h10v15h-4v-11zm8 15h-6v-2h5a1 1 0 0 1 1 1zm0-17v-2h2a2 2 0 0 1 -2 2z"/></g></svg>