<?xml version="1.0"?>
<svg xmlns="http://www.w3.org/2000/svg" viewBox="0 0 64 64" width="512" height="512"><g id="Layer_21" data-name="Layer 21"><path d="M63,31a3.94,3.94,0,0,0-1.68-3.25A5.83,5.83,0,0,0,62,25a6,6,0,0,0-2.55-4.91,7,7,0,1,0-9.64-9.37A5.87,5.87,0,0,0,47,10a6,6,0,0,0-4.25,10.2A5,5,0,0,0,41,24v.13A4,4,0,0,0,38,28a4.23,4.23,0,0,0,.14,1H32a1,1,0,0,0-.77.36L21.53,41H20a5,5,0,0,0-5,5v8a1,1,0,0,0,1,1h6.1A4.84,4.84,0,0,0,23,57H15.5l-2.58-3.44L12,50,13,46.24A1,1,0,0,0,13,46V41a1,1,0,0,0-.11-.45l-.74-1.48.64-1,.45.53,1.52-1.3L10.17,32H16a1,1,0,0,0,.89-.55l2-4.07,2.15,5A1,1,0,0,0,22.2,33l2.63-.53-2.66,4,1.66,1.1,4-6a1,1,0,0,0,0-1.11,1,1,0,0,0-1-.42l-4.2.84-2.68-6.25a1,1,0,0,0-1.81-.06L15.38,30H14V2a1,1,0,0,0-1-1H2V3H12V30H8a1,1,0,0,0-.91.58,1,1,0,0,0,.15,1.07l4.2,4.89-1.27,1.91a1,1,0,0,0-.06,1L11,41.24v4.64l-1,3.88a1,1,0,0,0,0,.48l1,4a1,1,0,0,0,.17.36L13,57H2a1,1,0,0,0-1,1v4a1,1,0,0,0,1,1H62a1,1,0,0,0,1-1V58a1,1,0,0,0-1-1H58a4.84,4.84,0,0,0,.93-2H62a1,1,0,0,0,1-1V44a3,3,0,0,0-3-3H58.57l-.49-.86A6,6,0,0,0,61,35a4.84,4.84,0,0,0,0-.53A4,4,0,0,0,63,31ZM20,43h1v2a1,1,0,0,1-1,1H17A3,3,0,0,1,20,43Zm4,11a3,3,0,1,1,3,3A3,3,0,0,1,24,54Zm7.9,1H49.1A4.84,4.84,0,0,0,50,57H31A4.84,4.84,0,0,0,31.9,55ZM61,61H3V59H61ZM51,54a3,3,0,1,1,3,3A3,3,0,0,1,51,54ZM61,44v9H58.9a5,5,0,0,0-9.8,0H31.9a5,5,0,0,0-9.8,0H17V48h3a3,3,0,0,0,3-3V43H60A1,1,0,0,1,61,44ZM50.41,41l-2.12-2.13.81-1.22L51.2,41Zm-3.95-3H44.62l-.73-1.45-1.78.9,1,2A1,1,0,0,0,44,40h2.59l1,1H40.41L38,38.59V37a1,1,0,0,0-.29-.71L36.41,35h11l.49.79ZM34.05,35.46,35.59,37l-2.3,2.29,1.42,1.42,1.36-1.36a1.13,1.13,0,0,0,.22.36L37.59,41H29.2ZM53.55,41l-4.7-7.53A1,1,0,0,0,48,33H34a1,1,0,0,0-.75.34L26.55,41H24.14l8.33-10h18l5.83,10Zm6-8.1a1,1,0,0,0-.69,1.19A3.86,3.86,0,0,1,59,35a4,4,0,0,1-1.93,3.42L51.86,29.5A1,1,0,0,0,51,29H40.27A2,2,0,0,1,40,28a2,2,0,0,1,1.94-2h.17a.94.94,0,0,0,.82-.37,1,1,0,0,0,.18-.88A3.24,3.24,0,0,1,43,24a3,3,0,0,1,1.87-2.77,1,1,0,0,0,.62-.86,1,1,0,0,0-.5-.93A4,4,0,0,1,47,12a3.92,3.92,0,0,1,2.61,1,1,1,0,0,0,1.61-.47A5,5,0,1,1,56,19h-.11a1,1,0,0,0-.81.4,1,1,0,0,0-.17.9,1,1,0,0,0,1,.72C56,21,56,21,56,21a4,4,0,0,1,3.09,6.51,1,1,0,0,0,.48,1.59,2,2,0,0,1,0,3.8Z"/></g></svg>
