<?xml version="1.0"?>
<svg xmlns="http://www.w3.org/2000/svg" viewBox="0 0 64 64" width="512" height="512"><g id="Layer_11" data-name="Layer 11"><path d="M54.71,52.71A1,1,0,0,0,55,52h0V2a1,1,0,0,0-1-1H14A5,5,0,0,0,9,6V57a6,6,0,0,0,6,6H54a1,1,0,0,0,.92-.62,1,1,0,0,0-.21-1.09l-1.59-1.58a3.84,3.84,0,0,1,0-5.42ZM14,3h5V51H15a6,6,0,0,0-4,1.54V6A3,3,0,0,1,14,3ZM51.59,61H15a4,4,0,0,1,0-8H51.59a5.83,5.83,0,0,0,0,8ZM21,51V3H53V51Z"/><path d="M49.39,18.89a5.8,5.8,0,0,0-1.5-1.16l.07,0L47.74,17H48a3,3,0,0,0,0-6H45.94L45.6,9.85A4,4,0,0,0,41.77,7H32.24A4,4,0,0,0,28.4,9.85L28.06,11H26a3,3,0,0,0,0,6h.26l-.17.55A5.4,5.4,0,0,0,23,22.46V26a1,1,0,0,0,1,1h1v1a3,3,0,0,0,3,3h2a3,3,0,0,0,3-3V27h8v1a3,3,0,0,0,3,3h2a3,3,0,0,0,3-3V27h1a1,1,0,0,0,1-1V23A5.9,5.9,0,0,0,49.39,18.89ZM48,13a1,1,0,0,1,0,2h-.86l-.6-2ZM26,15a1,1,0,0,1,0-2h1.46l-.6,2Zm4.32-4.58A2,2,0,0,1,32.24,9h9.53a2,2,0,0,1,1.91,1.43l2,6.6q-.31,0-.63,0H28.34ZM31,28a1,1,0,0,1-1,1H28a1,1,0,0,1-1-1V27h4Zm16,0a1,1,0,0,1-1,1H44a1,1,0,0,1-1-1V27h4Zm2-3H25V22.46a3.39,3.39,0,0,1,.67-2A3.45,3.45,0,0,1,28.46,19H45a4,4,0,0,1,2.89,1.25A4,4,0,0,1,49,23Z"/><path d="M33,22a3,3,0,1,0-3,3A3,3,0,0,0,33,22Zm-3,1a1,1,0,1,1,1-1A1,1,0,0,1,30,23Z"/><path d="M47,22a3,3,0,1,0-3,3A3,3,0,0,0,47,22Zm-3,1a1,1,0,1,1,1-1A1,1,0,0,1,44,23Z"/><path d="M50,33H24a1,1,0,0,0-1,1V48a1,1,0,0,0,1,1H50a1,1,0,0,0,1-1V34A1,1,0,0,0,50,33ZM49,47H25V35H49Z"/><rect x="27" y="38" width="20" height="2"/><rect x="27" y="42" width="20" height="2"/></g></svg>
