<?xml version="1.0"?>
<svg xmlns="http://www.w3.org/2000/svg" viewBox="0 0 64 64" width="512" height="512"><g id="Layer_18" data-name="Layer 18"><path d="M40,5H24a1,1,0,0,0-1,1V34a1,1,0,0,0,1,1H40a1,1,0,0,0,1-1V6A1,1,0,0,0,40,5ZM39,33H25V7H39Z"/><path d="M29,19h6a1,1,0,0,0,1-1V14a1,1,0,0,0-1-1V12a3,3,0,0,0-6,0h2a1,1,0,0,1,2,0v1H29a1,1,0,0,0-1,1v4A1,1,0,0,0,29,19Zm1-4h4v2H30Z"/><path d="M29,31h6a1,1,0,0,0,1-1V26a1,1,0,0,0-1-1V24a3,3,0,0,0-6,0v1a1,1,0,0,0-1,1v4A1,1,0,0,0,29,31Zm5-2H30V27h4Zm-3-5a1,1,0,0,1,2,0v1H31Z"/><path d="M46.21,5.72a5,5,0,0,0-5-4.72H22.78a5,5,0,0,0-5,4.72l-1.55,28a5,5,0,0,0,5,5.28H28v9a1,1,0,0,0,.29.71L29.59,50l-1.3,1.29a1,1,0,0,0,0,1.42L29.59,54l-1.3,1.29A1,1,0,0,0,28,56v3a1,1,0,0,0,.29.71l3,3a1,1,0,0,0,1.42,0l3-3A1,1,0,0,0,36,59V39h6.77a5,5,0,0,0,5-5.28ZM34,58.59l-2,2-2-2V56.41l1.71-1.7a1,1,0,0,0,0-1.42L30.41,52l1.3-1.29a1,1,0,0,0,0-1.42L30,47.59V39h4ZM45,36.06a3,3,0,0,1-2.18.94H21.23a3,3,0,0,1-2.18-.94,3,3,0,0,1-.82-2.23l1.56-28a3,3,0,0,1,3-2.83H41.22a3,3,0,0,1,3,2.83l1.56,28A3,3,0,0,1,45,36.06Z"/></g></svg>
