<?xml version="1.0"?>
<svg xmlns="http://www.w3.org/2000/svg" viewBox="0 0 64 64" width="512" height="512"><g id="Layer_6" data-name="Layer 6"><path d="M62,45H61V37.41a10.39,10.39,0,0,0-3.74-8A10.54,10.54,0,0,0,55,28l-.19-1H57a3,3,0,0,0,3-3V22a3,3,0,0,0-3-3H53.19l-1.1-5.55A8,8,0,0,0,44.24,7H19.76a8,8,0,0,0-7.85,6.45L10.81,19H7a3,3,0,0,0-3,3v2a3,3,0,0,0,3,3H9.24l-.19,1a10.54,10.54,0,0,0-2.31,1.45,10.39,10.39,0,0,0-3.74,8V45H2a1,1,0,0,0-1,1v4a1,1,0,0,0,1,1H7v3a3,3,0,0,0,3,3h8a3,3,0,0,0,3-3V51H43v3a3,3,0,0,0,3,3h8a3,3,0,0,0,3-3V51h5a1,1,0,0,0,1-1V46A1,1,0,0,0,62,45ZM57,21a1,1,0,0,1,1,1v2a1,1,0,0,1-1,1H54.37l-.79-4ZM44.24,9a6,6,0,0,1,4.46,2H15.3a6,6,0,0,1,4.46-2ZM7,25a1,1,0,0,1-1-1V22a1,1,0,0,1,1-1h3.42l-.79,4Zm6.87-11.16a7.41,7.41,0,0,1,.24-.84H49.89a7.41,7.41,0,0,1,.24.84l2.64,13.4A10.55,10.55,0,0,0,50.59,27H13.41a10.55,10.55,0,0,0-2.18.24ZM5,37.41A8.4,8.4,0,0,1,13.41,29H50.59A8.4,8.4,0,0,1,59,37.41V45H41V36a3,3,0,0,0-3-3H26a3,3,0,0,0-3,3v9H5ZM39,37H25V36a1,1,0,0,1,1-1H38a1,1,0,0,1,1,1ZM25,39H39v2H25Zm0,4H39v2H25ZM19,54a1,1,0,0,1-1,1H10a1,1,0,0,1-1-1V51H19Zm36,0a1,1,0,0,1-1,1H46a1,1,0,0,1-1-1V51H55Zm6-5H3V47H61Z"/><path d="M14,34c-3.92,0-7,2-7,4.5S10.08,43,14,43s7-2,7-4.5S17.92,34,14,34Zm0,7c-2.95,0-5-1.32-5-2.5S11.05,36,14,36s5,1.32,5,2.5S17,41,14,41Z"/><path d="M50,43c3.92,0,7-2,7-4.5S53.92,34,50,34s-7,2-7,4.5S46.08,43,50,43Zm0-7c3,0,5,1.32,5,2.5S53,41,50,41s-5-1.32-5-2.5S47.05,36,50,36Z"/><rect x="19.76" y="20" width="8.49" height="2" transform="translate(-7.82 23.12) rotate(-45)"/><rect x="27.76" y="20" width="8.49" height="2" transform="translate(-5.48 28.78) rotate(-45)"/><rect x="35.76" y="20" width="8.49" height="2" transform="translate(-3.13 34.44) rotate(-45)"/></g></svg>
