<svg height="512" viewBox="0 0 64 64" width="512" xmlns="http://www.w3.org/2000/svg"><g id="Layer_15" data-name="Layer 15"><path d="m32 25a7 7 0 1 0 7 7 7 7 0 0 0 -7-7zm0 12a5 5 0 1 1 5-5 5 5 0 0 1 -5 5z"/><path d="m17.76 27.31a15 15 0 0 1 9.55-9.55 1 1 0 0 0 .69-1v-15.76h-2v15.1a17.08 17.08 0 0 0 -9.9 9.9h-15.1v2h15.81a1 1 0 0 0 .95-.69z"/><path d="m38 16.1v-15.1h-2v15.81a1 1 0 0 0 .69 1 15 15 0 0 1 9.55 9.55 1 1 0 0 0 .95.69h15.81v-2.05h-15.1a17.08 17.08 0 0 0 -9.9-9.9z"/><path d="m46.24 36.69a15 15 0 0 1 -9.55 9.55 1 1 0 0 0 -.69.95v15.81h2v-15.1a17.08 17.08 0 0 0 9.9-9.9h15.1v-2h-15.81a1 1 0 0 0 -.95.69z"/><path d="m27.31 46.24a15 15 0 0 1 -9.55-9.55 1 1 0 0 0 -1-.69h-15.76v2h15.1a17.08 17.08 0 0 0 9.9 9.9v15.1h2v-15.81a1 1 0 0 0 -.69-.95z"/><path d="m32 20a12.06 12.06 0 0 0 -6 1.62l1 1.73a10 10 0 0 1 5-1.35z"/><path d="m21.59 26a12 12 0 0 0 -1.59 6h2a10 10 0 0 1 1.33-5z"/><path d="m42.4 38a12 12 0 0 0 1.6-6h-2a9.94 9.94 0 0 1 -1.34 5z"/><path d="m32 44a12 12 0 0 0 6-1.61l-1-1.73a10 10 0 0 1 -5 1.34z"/><path d="m26 42.4 1-1.73a10.09 10.09 0 0 1 -3.65-3.67l-1.73 1a12 12 0 0 0 4.38 4.4z"/><path d="m38 21.59-1 1.73a10 10 0 0 1 3.64 3.68l1.73-1a11.93 11.93 0 0 0 -4.37-4.41z"/><path d="m31 10h2v4h-2z"/><path d="m31 4h2v4h-2z"/><path d="m31 56h2v4h-2z"/><path d="m31 50h2v4h-2z"/><path d="m10 31h4v2h-4z"/><path d="m4 31h4v2h-4z"/><path d="m56 31h4v2h-4z"/><path d="m50 31h4v2h-4z"/><path d="m46 13.88v4.12h2v-4.12c2.28-.56 4-3 4-5.88 0-3.31-2.24-6-5-6s-5 2.69-5 6c0 2.9 1.72 5.32 4 5.88zm1-9.88c1.65 0 3 1.79 3 4a4.07 4.07 0 0 1 -2 3.75v-3.75h-2v3.75a4.07 4.07 0 0 1 -2-3.75c0-2.21 1.35-4 3-4z"/><path d="m57 19.88v4.12h2v-4.12c2.28-.56 4-3 4-5.88 0-3.31-2.24-6-5-6s-5 2.69-5 6c0 2.9 1.72 5.32 4 5.88zm1-9.88c1.65 0 3 1.79 3 4a4.07 4.07 0 0 1 -2 3.75v-3.75h-2v3.75a4.07 4.07 0 0 1 -2-3.75c0-2.21 1.35-4 3-4z"/><path d="m58 41c-2.76 0-5 2.69-5 6 0 2.9 1.72 5.32 4 5.88v4.12h2v-4.12c2.28-.56 4-3 4-5.88 0-3.31-2.24-6-5-6zm1 9.75v-3.75h-2v3.75a4.07 4.07 0 0 1 -2-3.75c0-2.21 1.35-4 3-4s3 1.79 3 4a4.07 4.07 0 0 1 -2 3.75z"/><path d="m47 47c-2.76 0-5 2.69-5 6 0 2.9 1.72 5.32 4 5.88v4.12h2v-4.12c2.28-.56 4-3 4-5.88 0-3.31-2.24-6-5-6zm1 9.75v-3.75h-2v3.75a4.07 4.07 0 0 1 -2-3.75c0-2.21 1.35-4 3-4s3 1.79 3 4a4.07 4.07 0 0 1 -2 3.75z"/><path d="m6 41c-2.76 0-5 2.69-5 6 0 2.9 1.72 5.32 4 5.88v4.12h2v-4.12c2.28-.56 4-3 4-5.88 0-3.31-2.24-6-5-6zm1 9.75v-3.75h-2v3.75a4.07 4.07 0 0 1 -2-3.75c0-2.21 1.35-4 3-4s3 1.79 3 4a4.07 4.07 0 0 1 -2 3.75z"/><path d="m17 47c-2.76 0-5 2.69-5 6 0 2.9 1.72 5.32 4 5.88v4.12h2v-4.12c2.28-.56 4-3 4-5.88 0-3.31-2.24-6-5-6zm1 9.75v-3.75h-2v3.75a4.07 4.07 0 0 1 -2-3.75c0-2.21 1.35-4 3-4s3 1.79 3 4a4.07 4.07 0 0 1 -2 3.75z"/><path d="m16 13.88v4.12h2v-4.12c2.28-.56 4-3 4-5.88 0-3.31-2.24-6-5-6s-5 2.69-5 6c0 2.9 1.72 5.32 4 5.88zm1-9.88c1.65 0 3 1.79 3 4a4.07 4.07 0 0 1 -2 3.75v-3.75h-2v3.75a4.07 4.07 0 0 1 -2-3.75c0-2.21 1.35-4 3-4z"/><path d="m5 19.88v4.12h2v-4.12c2.28-.56 4-3 4-5.88 0-3.31-2.24-6-5-6s-5 2.69-5 6c0 2.9 1.72 5.32 4 5.88zm1-9.88c1.65 0 3 1.79 3 4a4.07 4.07 0 0 1 -2 3.75v-3.75h-2v3.75a4.07 4.07 0 0 1 -2-3.75c0-2.21 1.35-4 3-4z"/></g></svg>