<svg height="512" viewBox="0 0 64 64" width="512" xmlns="http://www.w3.org/2000/svg"><g id="Layer_5" data-name="Layer 5"><path d="m58 12h-52a5 5 0 0 0 -5 5v30a5 5 0 0 0 5 5h52a5 5 0 0 0 5-5v-30a5 5 0 0 0 -5-5zm-52 2h52a3 3 0 0 1 3 3v1h-58v-1a3 3 0 0 1 3-3zm52 36h-52a3 3 0 0 1 -3-3v-27h58v27a3 3 0 0 1 -3 3z"/><path d="m56.72 39.1-1.79-4.47a1 1 0 0 0 -.93-.63h-8a1 1 0 0 0 -.93.63l-1.79 4.47a3 3 0 0 0 -2.28 2.9v2a1 1 0 0 0 1 1h1a3 3 0 0 0 6 0h2a3 3 0 0 0 6 0h1a1 1 0 0 0 1-1v-2a3 3 0 0 0 -2.28-2.9zm-10-3.1h6.64l1.2 3h-9zm-.72 10a1 1 0 0 1 -1-1h2a1 1 0 0 1 -1 1zm8 0a1 1 0 0 1 -1-1h2a1 1 0 0 1 -1 1zm3-3h-14v-1a1 1 0 0 1 1-1h12a1 1 0 0 1 1 1z"/><path d="m28 22h-22a1 1 0 0 0 -1 1v24a1 1 0 0 0 1 1h22a1 1 0 0 0 1-1v-24a1 1 0 0 0 -1-1zm-6 24h-1v-4h-2v4h-4v-4h-2v4h-1v-5a1 1 0 0 1 1-1h8a1 1 0 0 1 1 1zm5 0h-3v-5a3 3 0 0 0 -3-3h-8a3 3 0 0 0 -3 3v5h-3v-22h20z"/><path d="m58 22h-26a1 1 0 0 0 -1 1v8a1 1 0 0 0 1 1h26a1 1 0 0 0 1-1v-8a1 1 0 0 0 -1-1zm-1 8h-24v-6h24z"/><path d="m21 34v-2a4 4 0 0 0 -8 0v2a4 4 0 0 0 8 0zm-2 0a2 2 0 0 1 -4 0v-2a2 2 0 0 1 4 0z"/><path d="m31 34h9v2h-9z"/><path d="m31 38h9v2h-9z"/><path d="m31 42h9v2h-9z"/><path d="m31 46h9v2h-9z"/><path d="m35 26h20v2h-20z"/></g></svg>