<?xml version="1.0"?>
<svg xmlns="http://www.w3.org/2000/svg" id="Layer_3" data-name="Layer 3" viewBox="0 0 64 64" width="512" height="512"><path d="M62,57H56V19A12,12,0,0,0,44,7H41.79A11,11,0,0,0,22.21,7H20A12,12,0,0,0,8,19V57H2a1,1,0,0,0-1,1v4a1,1,0,0,0,1,1H62a1,1,0,0,0,1-1V58A1,1,0,0,0,62,57ZM44,9A10,10,0,0,1,54,19V57H50a17.83,17.83,0,0,0-1-4.86V40a9,9,0,0,0-9-9H37V28.79A11.08,11.08,0,0,0,42.24,23H43a4,4,0,0,0,0-8V12a10.66,10.66,0,0,0-.43-3ZM21.61,52l5,5H20.05A11.93,11.93,0,0,1,21.61,52Zm7.8,5-6.65-6.65a11.94,11.94,0,0,1,1.59-1.59l6.94,7a1,1,0,0,0,1.42,0l6.94-7a11.94,11.94,0,0,1,1.59,1.59L34.59,57ZM34.2,46.21A11.86,11.86,0,0,1,38,47.61l-6,6L29.41,51ZM28,49.59l-2-2A11.89,11.89,0,0,1,31.56,46ZM42.39,52A11.93,11.93,0,0,1,44,57H37.41ZM46,57a14,14,0,0,0-27.9,0h-2A16,16,0,0,1,48,57ZM17,40a7,7,0,0,1,7-7h3.52l3.7,4.63a1,1,0,0,0,1.56,0L36.48,33h1.11l-7.08,7.08a18,18,0,0,0-13.51,8Zm4.19-19H21a2,2,0,0,1,0-4v2A11,11,0,0,0,21.19,21ZM23,16h6.39A7.73,7.73,0,0,0,35,13.6,7.73,7.73,0,0,0,40.61,16H41v3a9,9,0,0,1-18,0Zm9,14a10.66,10.66,0,0,0,3-.43v2.08L32,35.4l-3-3.75V29.57A10.66,10.66,0,0,0,32,30ZM47,48.07a18.1,18.1,0,0,0-8-6.65l6.14-6.15A7,7,0,0,1,47,40ZM36.89,40.69a18,18,0,0,0-3.54-.62l7-7a7,7,0,0,1,3.2,1ZM43,19V17a2,2,0,0,1,0,4h-.19A11,11,0,0,0,43,19ZM32,3a9,9,0,0,1,9,9v2h-.39a5.75,5.75,0,0,1-4.78-2.55,1,1,0,0,0-1.66,0A5.75,5.75,0,0,1,29.39,14H23V12A9,9,0,0,1,32,3ZM10,19A10,10,0,0,1,20,9h1.43A10.66,10.66,0,0,0,21,12v3a4,4,0,0,0,0,8h.76A11.08,11.08,0,0,0,27,28.79V31H24a9,9,0,0,0-9,9V52.14A17.76,17.76,0,0,0,14.05,57H10ZM61,61H3V59H61Z"/></svg>
