<svg height="512" viewBox="0 0 64 64" width="512" xmlns="http://www.w3.org/2000/svg"><g id="Layer_31" data-name="Layer 31"><path d="m62 7a1 1 0 0 0 1-1v-4a1 1 0 0 0 -1-1h-60a1 1 0 0 0 -1 1v4a1 1 0 0 0 1 1h1v32h-1a1 1 0 0 0 -1 1v4a1 1 0 0 0 1 1h25.1a5 5 0 0 0 3.9 3.9v8.28a3 3 0 1 0 2 0v-8.28a5 5 0 0 0 3.9-3.9h25.1a1 1 0 0 0 1-1v-4a1 1 0 0 0 -1-1h-1v-32zm-59-4h58v2h-58zm29 58a1 1 0 1 1 1-1 1 1 0 0 1 -1 1zm0-14a3 3 0 0 1 -2.82-2h5.64a3 3 0 0 1 -2.82 2zm29-4h-58v-2h58zm-2-4h-54v-32h54z"/><path d="m8.05 23.23a5.45 5.45 0 0 0 -1.05 3.23v3.54a1 1 0 0 0 1 1h1v1a3 3 0 0 0 3 3h2a3 3 0 0 0 3-3v-1h8v1a3 3 0 0 0 3 3h2a3 3 0 0 0 3-3v-1h1a1 1 0 0 0 1-1v-3a5.9 5.9 0 0 0 -1.61-4.07 5.8 5.8 0 0 0 -1.5-1.16h.07l-.22-.77h.26a3 3 0 0 0 0-6h-2.06l-.34-1.15a4 4 0 0 0 -3.83-2.85h-9.53a4 4 0 0 0 -3.84 2.85l-.34 1.15h-2.06a3 3 0 0 0 0 6h.26l-.17.55a5.43 5.43 0 0 0 -2.04 1.68zm6.95 8.77a1 1 0 0 1 -1 1h-2a1 1 0 0 1 -1-1v-1h4zm16 0a1 1 0 0 1 -1 1h-2a1 1 0 0 1 -1-1v-1h4zm2-5v2h-24v-2.54a3.39 3.39 0 0 1 .67-2 3.45 3.45 0 0 1 2.79-1.46h16.54a4 4 0 0 1 2.89 1.25 4 4 0 0 1 1.11 2.75zm0-9a1 1 0 0 1 -1 1h-.86l-.6-2h1.46a1 1 0 0 1 1 1zm-23 1a1 1 0 0 1 0-2h1.46l-.6 2zm4.32-4.58a2 2 0 0 1 1.92-1.42h9.53a2 2 0 0 1 1.91 1.42l2 6.61q-.32 0-.63 0h-16.71z"/><path d="m17 26a3 3 0 1 0 -3 3 3 3 0 0 0 3-3zm-3 1a1 1 0 1 1 1-1 1 1 0 0 1 -1 1z"/><path d="m31 26a3 3 0 1 0 -3 3 3 3 0 0 0 3-3zm-3 1a1 1 0 1 1 1-1 1 1 0 0 1 -1 1z"/><path d="m38 18h4a1 1 0 0 0 1-1v-3.59l1.71-1.7-1.42-1.42-1.7 1.71h-3.59a1 1 0 0 0 -1 1v4a1 1 0 0 0 1 1zm3-2h-.59l.59-.59zm-1.41-2-.59.59v-.59z"/><path d="m38 26h4a1 1 0 0 0 1-1v-3.59l1.71-1.7-1.42-1.42-1.7 1.71h-3.59a1 1 0 0 0 -1 1v4a1 1 0 0 0 1 1zm3-2h-.59l.59-.59zm-1.41-2-.59.59v-.59z"/><path d="m38 34h4a1 1 0 0 0 1-1v-3.59l1.71-1.7-1.42-1.42-1.7 1.71h-3.59a1 1 0 0 0 -1 1v4a1 1 0 0 0 1 1zm3-2h-.59l.59-.59zm-1.41-2-.59.59v-.59z"/><path d="m46 12h11v2h-11z"/><path d="m46 16h11v2h-11z"/><path d="m46 20h11v2h-11z"/><path d="m46 24h11v2h-11z"/><path d="m46 28h11v2h-11z"/><path d="m46 32h11v2h-11z"/></g></svg>