<?xml version="1.0"?>
<svg xmlns="http://www.w3.org/2000/svg" viewBox="0 0 64 64" width="512" height="512"><g id="Layer_29" data-name="Layer 29"><path d="M32,29A15,15,0,1,0,47,44,15,15,0,0,0,32,29Zm9.94,6.64-5,5A6.16,6.16,0,0,0,35.37,39l5-5A13.1,13.1,0,0,1,41.94,35.64Zm1.18,1.66A13.12,13.12,0,0,1,44.64,41H39.41ZM32,48a4,4,0,1,1,4-4A4,4,0,0,1,32,48Zm6.7-15.12-5.29,5.29a5.93,5.93,0,0,0-2.82,0L25.3,32.88a12.88,12.88,0,0,1,13.4,0ZM23.64,34.06l5,5A6.16,6.16,0,0,0,27,40.63l-5-5A13.1,13.1,0,0,1,23.64,34.06ZM24.59,41H19.36a13.12,13.12,0,0,1,1.52-3.7Zm-5.54,2h7A6.64,6.64,0,0,0,26,44a5.92,5.92,0,0,0,.17,1.41L20.88,50.7A13,13,0,0,1,19,44C19,43.66,19,43.33,19.05,43Zm3,9.36,5-5A6.16,6.16,0,0,0,28.63,49l-5,5A13.1,13.1,0,0,1,22.06,52.36Zm3.24,2.76,5.29-5.29a5.93,5.93,0,0,0,2.82,0l5.29,5.29a12.88,12.88,0,0,1-13.4,0Zm15.06-1.18-5-5A6.16,6.16,0,0,0,37,47.37l5,5A13.1,13.1,0,0,1,40.36,53.94Zm2.76-3.24-5.29-5.29A5.92,5.92,0,0,0,38,44a6.64,6.64,0,0,0-.09-1h7c0,.33,0,.66,0,1A13,13,0,0,1,43.12,50.7Z"/><path d="M62,1H2A1,1,0,0,0,1,2V42a1,1,0,0,0,1,1H13.05c0,.33-.05.66-.05,1a19,19,0,0,0,38,0c0-.34,0-.67,0-1H62a1,1,0,0,0,1-1V2A1,1,0,0,0,62,1ZM7,37V7h9.72L9.22,37ZM18.78,7h1.94l-7.5,30H11.28Zm36,30L47.28,7H57V37ZM45.22,7l7.5,30H50.78L43.28,7Zm-4,0,6.64,26.56A19.06,19.06,0,0,0,35,25.26V20a1,1,0,0,0-1-1H30a1,1,0,0,0-1,1v5.26a19.06,19.06,0,0,0-12.86,8.3L22.78,7ZM33,25.05c-.33,0-.66-.05-1-.05s-.67,0-1,.05V21h2ZM32,61A17,17,0,1,1,49,44,17,17,0,0,1,32,61ZM61,41H50.74a18.68,18.68,0,0,0-.43-2H58a1,1,0,0,0,1-1V6a1,1,0,0,0-1-1H6A1,1,0,0,0,5,6V38a1,1,0,0,0,1,1h7.69a18.68,18.68,0,0,0-.43,2H3V3H61Z"/><path d="M30,17h4a1,1,0,0,0,1-1V10a1,1,0,0,0-1-1H30a1,1,0,0,0-1,1v6A1,1,0,0,0,30,17Zm1-6h2v4H31Z"/></g></svg>
