<?xml version="1.0"?>
<svg xmlns="http://www.w3.org/2000/svg" viewBox="0 0 64 64" width="512" height="512"><g id="Layer_22" data-name="Layer 22"><path d="M62,55H61V52a1,1,0,0,0-1-1H56V46a1,1,0,0,0-1-1H49V23a5,5,0,0,0,4.72-4.46L55,6.52A5,5,0,0,0,50,1H38A5,5,0,0,0,33,6.52l1.25,12A5,5,0,0,0,39,23V45H33a1,1,0,0,0-1,1v5H28a1,1,0,0,0-1,1v3H26a1,1,0,0,0-1,1v6a1,1,0,0,0,1,1H62a1,1,0,0,0,1-1V56A1,1,0,0,0,62,55ZM36.27,18.31,35,6.31A3,3,0,0,1,35.77,4,3,3,0,0,1,38,3H50a3,3,0,0,1,2.21,1A3,3,0,0,1,53,6.31l-1.25,12a3,3,0,0,1-3,2.69H39.23A3,3,0,0,1,36.27,18.31ZM41,23h6V45H41ZM34,47H54v4H34Zm-5,6H59v2H29Zm32,8H27V57H61Z"/><path d="M31,36V2a1,1,0,0,0-1-1H2A1,1,0,0,0,1,2V36a1,1,0,0,0,1,1H30A1,1,0,0,0,31,36Zm-2-1H3V3H29Z"/><path d="M15,18H12.86a4,4,0,1,0,0,2H15v9a1,1,0,0,0,1,1h3.14a4,4,0,1,0,0-2H17V20h2.14a4,4,0,1,0,0-2H17V10h2.14a4,4,0,1,0,0-2H12.86a4,4,0,1,0,0,2H15ZM9,21a2,2,0,1,1,2-2A2,2,0,0,1,9,21Zm14,6a2,2,0,1,1-2,2A2,2,0,0,1,23,27Zm0-10a2,2,0,1,1-2,2A2,2,0,0,1,23,17ZM23,7a2,2,0,1,1-2,2A2,2,0,0,1,23,7ZM9,11a2,2,0,1,1,2-2A2,2,0,0,1,9,11Z"/></g></svg>
