<?xml version="1.0"?>
<svg xmlns="http://www.w3.org/2000/svg" viewBox="0 0 64 64" width="512" height="512"><g id="Layer_26" data-name="Layer 26"><path d="M25,28a7,7,0,1,0-7,7A7,7,0,0,0,25,28Zm-7,5a5,5,0,1,1,5-5A5,5,0,0,1,18,33Z"/><path d="M19,25H17v3a1,1,0,0,0,.29.71l2,2,1.42-1.42L19,27.59Z"/><path d="M16,37H8a1,1,0,0,0-1,1v6a1,1,0,0,0,1,1h8a1,1,0,0,0,1-1V38A1,1,0,0,0,16,37Zm-1,6H9V39h6Z"/><path d="M28,37H20a1,1,0,0,0-1,1v6a1,1,0,0,0,1,1h8a1,1,0,0,0,1-1V38A1,1,0,0,0,28,37Zm-1,6H21V39h6Z"/><path d="M16,47H8a1,1,0,0,0-1,1v6a1,1,0,0,0,1,1h8a1,1,0,0,0,1-1V48A1,1,0,0,0,16,47Zm-1,6H9V49h6Z"/><path d="M28,47H20a1,1,0,0,0-1,1v6a1,1,0,0,0,1,1h8a1,1,0,0,0,1-1V48A1,1,0,0,0,28,47Zm-1,6H21V49h6Z"/><path d="M63,63V61H60.82A3,3,0,0,0,61,60V59h1a1,1,0,0,0,1-1V55.18a6.46,6.46,0,0,0-1.76-4.45,5.28,5.28,0,0,0-1.29-1h0L59.74,49H60a3,3,0,0,0,0-6H57.94l-.34-1.15A4,4,0,0,0,53.77,39H44.24a4,4,0,0,0-3.84,2.85L40.06,43H38a3,3,0,0,0,0,6h.26l-.17.55A5.4,5.4,0,0,0,35,54.46V58a1,1,0,0,0,1,1h1v1a3,3,0,0,0,.18,1H33V18a1,1,0,0,0-.26-.65h0l-14-16a1,1,0,0,0-1.5,0l-14,16h0A1,1,0,0,0,3,18V61H1v2ZM60,45a1,1,0,0,1,0,2h-.86l-.6-2ZM38,47a1,1,0,0,1,0-2h1.46l-.6,2Zm4.32-4.58A2,2,0,0,1,44.24,41h9.53a2,2,0,0,1,1.91,1.42l2,6.6-.4,0H40.34ZM18,3.52,29.8,17H6.2ZM5,19H31V61H5ZM40,61a1,1,0,0,1-1-1V59h4v1a1,1,0,0,1-1,1Zm5-2h8v1a3,3,0,0,0,.18,1H44.82A3,3,0,0,0,45,60Zm14,1a1,1,0,0,1-1,1H56a1,1,0,0,1-1-1V59h4Zm2-3H37V54.46a3.39,3.39,0,0,1,.67-2A3.45,3.45,0,0,1,40.46,51h16.8a3.48,3.48,0,0,1,2.52,1.09A4.49,4.49,0,0,1,61,55.18Z"/><path d="M45,54a3,3,0,1,0-3,3A3,3,0,0,0,45,54Zm-3,1a1,1,0,1,1,1-1A1,1,0,0,1,42,55Z"/><path d="M59,54a3,3,0,1,0-3,3A3,3,0,0,0,59,54Zm-3,1a1,1,0,1,1,1-1A1,1,0,0,1,56,55Z"/><path d="M49.15,34.52a1,1,0,0,0,1.7,0l9.38-15.3a11.94,11.94,0,0,0,.41-11.8A11.77,11.77,0,0,0,50.9,1a13.67,13.67,0,0,0-1.81,0,11.77,11.77,0,0,0-9.73,6.39,11.94,11.94,0,0,0,.41,11.8Zm-8-26.19A9.74,9.74,0,0,1,49.22,3q.39,0,.78,0c.26,0,.52,0,.77,0a9.74,9.74,0,0,1,8.09,5.3,10,10,0,0,1-.34,9.85L50,32.09,41.48,18.18A10,10,0,0,1,41.14,8.33Z"/><path d="M50,21a8,8,0,1,0-8-8A8,8,0,0,0,50,21ZM50,7a6,6,0,1,1-6,6A6,6,0,0,1,50,7Z"/></g></svg>
