<svg height="512" viewBox="0 0 64 64" width="512" xmlns="http://www.w3.org/2000/svg"><g id="Layer_25" data-name="Layer 25"><path d="m22 31h8a5 5 0 0 0 5-5v-8a3 3 0 0 0 0-6v-1.17a7.82 7.82 0 0 0 -7.83-7.83h-2.34a7.82 7.82 0 0 0 -7.83 7.83v1.17a3 3 0 0 0 0 6v8a5 5 0 0 0 5 5zm-2-22a5 5 0 0 0 4.9-4h2.2a5 5 0 0 0 4.9 4h.7c.07.23.14.46.19.7l-3.3 3.3h-7.18l-3.3-3.3c.05-.24.12-.47.19-.7zm11 14.59v-9.18l2-2v13.18zm-2-8.59v8h-6v-8zm-8-.59v9.18l-2 2v-13.18zm9 14.59h-8a3 3 0 0 1 -2.39-1.2l2.8-2.8h7.18l2.8 2.8a3 3 0 0 1 -2.39 1.2zm6-14a1 1 0 0 1 -1 1v-2a1 1 0 0 1 1 1zm-4.49-8a3 3 0 0 1 -2.12-1.51 5.76 5.76 0 0 1 1.9 1.27 2.5 2.5 0 0 1 .22.24zm-8.9-1.51a3 3 0 0 1 -2.12 1.51 2.5 2.5 0 0 1 .22-.24 5.76 5.76 0 0 1 1.9-1.32zm-6.61 9.51a1 1 0 0 1 1-1v2a1 1 0 0 1 -1-1z"/><path d="m52 2h2v61h-2z"/><path d="m56 2h2v61h-2z"/><path d="m6 2h2v61h-2z"/><path d="m10 2h2v61h-2z"/><path d="m39 44v-1.17a7.82 7.82 0 0 0 -7.83-7.83h-2.34a7.82 7.82 0 0 0 -7.83 7.83v1.17a3 3 0 0 0 0 6v8a5 5 0 0 0 5 5h8a5 5 0 0 0 5-5v-8a3 3 0 0 0 0-6zm-4 11.59v-9.18l2-2v13.18zm-8.59-10.59-3.3-3.3c.05-.24.12-.47.19-.7h.7a5 5 0 0 0 4.9-4h2.2a5 5 0 0 0 4.9 4h.7c.07.23.14.46.19.7l-3.3 3.3zm6.59 2v8h-6v-8zm-8-.59v9.18l-2 2v-13.18zm10.51-7.41a3 3 0 0 1 -2.12-1.51 5.76 5.76 0 0 1 1.9 1.27 2.5 2.5 0 0 1 .22.24zm-8.9-1.51a3 3 0 0 1 -2.12 1.51 2.5 2.5 0 0 1 .22-.24 5.76 5.76 0 0 1 1.9-1.32zm-6.61 9.51a1 1 0 0 1 1-1v2a1 1 0 0 1 -1-1zm14 14h-8a3 3 0 0 1 -2.39-1.2l2.8-2.8h7.18l2.8 2.8a3 3 0 0 1 -2.39 1.2zm5-13v-2a1 1 0 0 1 0 2z"/><path d="m45.77 12.36a1 1 0 0 0 -1.54 0l-5 6a1 1 0 0 0 .77 1.64h2v10h-4a1 1 0 0 0 -1 1v4a1 1 0 0 0 1 1h9a1 1 0 0 0 1-1v-15h2a1 1 0 0 0 .77-1.64zm1.23 5.64a1 1 0 0 0 -1 1v15h-7v-2h4a1 1 0 0 0 1-1v-12a1 1 0 0 0 -1-1h-.87l2.87-3.44 2.87 3.44z"/></g></svg>