<?xml version="1.0"?>
<svg xmlns="http://www.w3.org/2000/svg" viewBox="0 0 64 64" width="512" height="512"><g id="Layer_30" data-name="Layer 30"><path d="M50,53H49V51.7a8.7,8.7,0,0,0-1.91-5.43,8.23,8.23,0,0,0-1.49-1.46A3.49,3.49,0,0,0,44.5,38H42.64l-1.13-3a4,4,0,0,0-3.87-3H26.36a4,4,0,0,0-3.87,3l-1.13,3H19.5a3.49,3.49,0,0,0-1.1,6.81,8.23,8.23,0,0,0-1.49,1.46A8.7,8.7,0,0,0,15,51.7V53H14a1,1,0,0,0-1,1v4a1,1,0,0,0,1,1h3v1a3,3,0,0,0,3,3h4a3,3,0,0,0,3-3V59H37v1a3,3,0,0,0,3,3h4a3,3,0,0,0,3-3V59h3a1,1,0,0,0,1-1V54A1,1,0,0,0,50,53ZM44.5,40a1.5,1.5,0,0,1,0,3l-1.12-3ZM24.38,35.64l0-.11A2,2,0,0,1,26.36,34H37.64a2,2,0,0,1,2,1.53l0,.11,2.87,7.65A8.44,8.44,0,0,0,40.3,43H23.7a8.44,8.44,0,0,0-2.19.29ZM19.5,40h1.11l-1.12,3a1.5,1.5,0,0,1,0-3ZM17,51.7A6.71,6.71,0,0,1,23.7,45H40.3A6.71,6.71,0,0,1,47,51.7V53H17ZM25,60a1,1,0,0,1-1,1H20a1,1,0,0,1-1-1V59h6Zm20,0a1,1,0,0,1-1,1H40a1,1,0,0,1-1-1V59h6Zm4-3H15V55H49Z"/><path d="M24,46c-2.24,0-4,1.32-4,3s1.76,3,4,3,4-1.32,4-3S26.24,46,24,46Zm0,4c-1.22,0-2-.59-2-1s.78-1,2-1,2,.59,2,1S25.22,50,24,50Z"/><path d="M40,46c-2.24,0-4,1.32-4,3s1.76,3,4,3,4-1.32,4-3S42.24,46,40,46Zm0,4c-1.22,0-2-.59-2-1s.78-1,2-1,2,.59,2,1S41.22,50,40,50Z"/><path d="M62,57H61V44a1,1,0,0,0-1-1H56a1,1,0,0,0-1,1V57H54a1,1,0,0,0-1,1v4a1,1,0,0,0,1,1h8a1,1,0,0,0,1-1V58A1,1,0,0,0,62,57Zm-3-5H57V50h2Zm0-7v3H57V45Zm-2,9h2v3H57Zm4,7H55V59h6Z"/><path d="M25,25H39a1,1,0,0,0,1-1V6a1,1,0,0,0-1-1H25a1,1,0,0,0-1,1V24A1,1,0,0,0,25,25ZM26,7H38V23H26Z"/><path d="M32,9H29a1,1,0,0,0-1,1V21h2V17h2a4,4,0,0,0,0-8Zm0,6H30V11h2a2,2,0,0,1,0,4Z"/><path d="M63,14V12H44V2a1,1,0,0,0-1-1H21a1,1,0,0,0-1,1V12H1v2H20v2H1v2H20V28a1,1,0,0,0,1,1H43a1,1,0,0,0,1-1V18H63V16H44V14ZM42,27H22V3H42Z"/><path d="M10,57H9V44a1,1,0,0,0-1-1H4a1,1,0,0,0-1,1V57H2a1,1,0,0,0-1,1v4a1,1,0,0,0,1,1h8a1,1,0,0,0,1-1V58A1,1,0,0,0,10,57ZM7,52H5V50H7Zm0-7v3H5V45ZM5,54H7v3H5Zm4,7H3V59H9Z"/></g></svg>
