<?xml version="1.0"?>
<svg xmlns="http://www.w3.org/2000/svg" viewBox="0 0 64 64" width="512" height="512"><g id="Layer_12" data-name="Layer 12"><path d="M62,39H45V2a1,1,0,0,0-1-1H2A1,1,0,0,0,1,2V58a1,1,0,0,0,1,1H21v3a1,1,0,0,0,1,1H62a1,1,0,0,0,1-1V40A1,1,0,0,0,62,39ZM21,40H15v2h6v4H15v2h6v2H15v2h6v5H3V3H43V39H22A1,1,0,0,0,21,40ZM61,61H23V41H61Z"/><path d="M26,59H58a1,1,0,0,0,1-1V44a1,1,0,0,0-1-1H26a1,1,0,0,0-1,1V58A1,1,0,0,0,26,59Zm10-8a6,6,0,1,1,6,6A6,6,0,0,1,36,51Zm21-6V57H47.27a8,8,0,0,0,0-12ZM27,45h9.73a8,8,0,0,0,0,12H27Z"/><path d="M43,46H41v2H40a1,1,0,0,0-.92.62,1,1,0,0,0,.21,1.09L41.59,52H39v2h2v2h2V54h1a1,1,0,0,0,.92-.62,1,1,0,0,0-.21-1.09L42.41,50H45V48H43Z"/><path d="M10,27h1v1a3,3,0,0,0,3,3h2a3,3,0,0,0,3-3V27h8v1a3,3,0,0,0,3,3h2a3,3,0,0,0,3-3V27h1a1,1,0,0,0,1-1V23.18a6.46,6.46,0,0,0-1.76-4.45,5.28,5.28,0,0,0-1.29-1h0L33.74,17H34a3,3,0,0,0,0-6H31.94L31.6,9.85A4,4,0,0,0,27.77,7H18.24A4,4,0,0,0,14.4,9.85L14.06,11H12a3,3,0,0,0,0,6h.26l-.17.55A5.4,5.4,0,0,0,9,22.46V26A1,1,0,0,0,10,27Zm7,1a1,1,0,0,1-1,1H14a1,1,0,0,1-1-1V27h4Zm16,0a1,1,0,0,1-1,1H30a1,1,0,0,1-1-1V27h4Zm2-14a1,1,0,0,1-1,1h-.86l-.6-2H34A1,1,0,0,1,35,14ZM12,15a1,1,0,0,1,0-2h1.46l-.6,2Zm4.32-4.58A2,2,0,0,1,18.24,9h9.53a2,2,0,0,1,1.91,1.43l2,6.59-.4,0H14.34ZM11,22.46a3.39,3.39,0,0,1,.67-2A3.45,3.45,0,0,1,14.46,19h16.8a3.48,3.48,0,0,1,2.52,1.09A4.49,4.49,0,0,1,35,23.18V25H11Z"/><path d="M13,22a3,3,0,1,0,3-3A3,3,0,0,0,13,22Zm3-1a1,1,0,1,1-1,1A1,1,0,0,1,16,21Z"/><path d="M27,22a3,3,0,1,0,3-3A3,3,0,0,0,27,22Zm3-1a1,1,0,1,1-1,1A1,1,0,0,1,30,21Z"/><path d="M14.29,32.29,11.59,35H6a1,1,0,0,0-1,1v6a1,1,0,0,0,1,1h6a1,1,0,0,0,1-1V36.41l2.71-2.7ZM9.59,37,7,39.59V37ZM11,41H8.41L11,38.41Z"/><path d="M13.29,43.29,11.59,45H6a1,1,0,0,0-1,1v6a1,1,0,0,0,1,1h6a1,1,0,0,0,1-1V46.41l1.71-1.7ZM9.59,47,7,49.59V47ZM11,51H8.41L11,48.41Z"/><rect x="15" y="36" width="25" height="2"/></g></svg>
