<svg height="512" viewBox="0 0 64 64" width="512" xmlns="http://www.w3.org/2000/svg"><g id="Layer_10" data-name="Layer 10"><path d="m31 6h2v4h-2z"/><path d="m31 14h2v4h-2z"/><path d="m31 22h2v4h-2z"/><path d="m31 30h2v4h-2z"/><path d="m31 38h2v4h-2z"/><path d="m31 46h2v4h-2z"/><path d="m31 54h2v4h-2z"/><path d="m42.83 18.45a1 1 0 0 0 -1.66 0l-4 6a1 1 0 0 0 -.05 1 1 1 0 0 0 .88.55h1v7a1 1 0 0 0 1 1h4a1 1 0 0 0 1-1v-7h1a1 1 0 0 0 .88-.53 1 1 0 0 0 -.05-1zm1.17 5.55a1 1 0 0 0 -1 1v7h-2v-7a1 1 0 0 0 -1-1h-.13l2.13-3.2 2.13 3.2z"/><path d="m39 36h2v7h-2z"/><path d="m43 36h2v9h-2z"/><path d="m26 38h-1v-7a1 1 0 0 0 -1-1h-4a1 1 0 0 0 -1 1v7h-1a1 1 0 0 0 -.88.53 1 1 0 0 0 .05 1l4 6a1 1 0 0 0 1.66 0l4-6a1 1 0 0 0 .05-1 1 1 0 0 0 -.88-.53zm-4 5.2-2.13-3.2h.13a1 1 0 0 0 1-1v-7h2v7a1 1 0 0 0 1 1h.13z"/><path d="m19 21h2v7h-2z"/><path d="m23 19h2v9h-2z"/><path d="m11 1h2v62h-2z"/><path d="m7 1h2v62h-2z"/><path d="m55 1h2v62h-2z"/><path d="m51 1h2v62h-2z"/></g></svg>