<?xml version="1.0"?>
<svg xmlns="http://www.w3.org/2000/svg" viewBox="0 0 64 64" width="512" height="512"><g id="Layer_8" data-name="Layer 8"><path d="M50,53H49V51.41a10.39,10.39,0,0,0-3.74-8A10.54,10.54,0,0,0,42.92,42l-.24-1A4,4,0,0,0,42,33H40.74l-1.21-4.95A4,4,0,0,0,35.64,25H16.36a4,4,0,0,0-3.89,3.05L11.26,33H10a4,4,0,0,0-.68,7.93l-.24,1a10.54,10.54,0,0,0-2.34,1.46,10.39,10.39,0,0,0-3.74,8V53H2a1,1,0,0,0-1,1v4a1,1,0,0,0,1,1H5v1a3,3,0,0,0,3,3h6a3,3,0,0,0,3-3V59H35v1a3,3,0,0,0,3,3h6a3,3,0,0,0,3-3V59h3a1,1,0,0,0,1-1V54A1,1,0,0,0,50,53ZM42,35a2,2,0,0,1,.2,4l-1-4ZM16.36,27H35.64a2,2,0,0,1,2,1.53l.11.47H14.3l.11-.47A2,2,0,0,1,16.36,27ZM8,37a2,2,0,0,1,2-2h.77l-1,4A2,2,0,0,1,8,37Zm5.81-6H38.19l2.5,10.22a10.54,10.54,0,0,0-2.1-.22H13.41a10.54,10.54,0,0,0-2.1.22ZM5,51.41A8.4,8.4,0,0,1,13.41,43H38.59A8.4,8.4,0,0,1,47,51.41V53H31V46a1,1,0,0,0-1-1H22a1,1,0,0,0-1,1v7H5ZM29,49H23V47h6Zm-6,2h6v2H23Zm-8,9a1,1,0,0,1-1,1H8a1,1,0,0,1-1-1V59h8Zm30,0a1,1,0,0,1-1,1H38a1,1,0,0,1-1-1V59h8Zm4-3H3V55H49Z"/><path d="M14,44c-2.76,0-5,1.79-5,4s2.24,4,5,4,5-1.79,5-4S16.76,44,14,44Zm0,6c-1.63,0-3-.92-3-2s1.37-2,3-2,3,.92,3,2S15.63,50,14,50Z"/><path d="M38,52c2.76,0,5-1.79,5-4s-2.24-4-5-4-5,1.79-5,4S35.24,52,38,52Zm0-6c1.63,0,3,.92,3,2s-1.37,2-3,2-3-.92-3-2S36.37,46,38,46Z"/><path d="M62.36,5.81A7.72,7.72,0,0,0,55.83,1a9.2,9.2,0,0,0-1.66,0,7.72,7.72,0,0,0-6.53,4.77A8,8,0,0,0,48.82,14l5.41,6.59a1,1,0,0,0,1.54,0L61.18,14A8,8,0,0,0,62.36,5.81Zm-2.73,7L55,18.42l-4.63-5.65a6,6,0,0,1-.89-6.18A5.75,5.75,0,0,1,54.34,3q.33,0,.66,0t.66,0a5.75,5.75,0,0,1,4.86,3.56A6,6,0,0,1,59.63,12.77Z"/><path d="M55,5a4,4,0,1,0,4,4A4,4,0,0,0,55,5Zm0,6a2,2,0,1,1,2-2A2,2,0,0,1,55,11Z"/><path d="M1,25a6,6,0,0,0,6,6h3V29H7a4,4,0,0,1,0-8H51V19H7A6,6,0,0,0,1,25Z"/></g></svg>
