<?xml version="1.0"?>
<svg xmlns="http://www.w3.org/2000/svg" viewBox="0 0 64 64" width="512" height="512"><g id="Layer_16" data-name="Layer 16"><path d="M6,31h6a1,1,0,0,0,1-1V24a1,1,0,0,0-1-1H6a1,1,0,0,0-1,1v6A1,1,0,0,0,6,31Zm1-6h4v4H7Z"/><path d="M16,31h6a1,1,0,0,0,1-1V24a1,1,0,0,0-1-1H16a1,1,0,0,0-1,1v6A1,1,0,0,0,16,31Zm1-6h4v4H17Z"/><path d="M26,31h6a1,1,0,0,0,1-1V24a1,1,0,0,0-1-1H26a1,1,0,0,0-1,1v6A1,1,0,0,0,26,31Zm1-6h4v4H27Z"/><path d="M36,23a1,1,0,0,0-1,1v6a1,1,0,0,0,1,1h6a1,1,0,0,0,1-1V24a1,1,0,0,0-1-1Zm5,6H37V25h4Z"/><path d="M46,23a1,1,0,0,0-1,1v6a1,1,0,0,0,1,1h6a1,1,0,0,0,1-1V24a1,1,0,0,0-1-1Zm5,6H47V25h4Z"/><path d="M13,34.41l1.71-1.7-1.42-1.42L11.59,33H6a1,1,0,0,0-1,1v6a1,1,0,0,0,1,1h6a1,1,0,0,0,1-1ZM9.59,35,7,37.59V35ZM8.41,39,11,36.41V39Z"/><path d="M15,40a1,1,0,0,0,1,1h6a1,1,0,0,0,1-1V34a1,1,0,0,0-1-1H16a1,1,0,0,0-1,1Zm2-5h4v4H17Z"/><path d="M33,34.41l1.71-1.7-1.42-1.42L31.59,33H26a1,1,0,0,0-1,1v6a1,1,0,0,0,1,1h6a1,1,0,0,0,1-1ZM29.59,35,27,37.59V35Zm-1.18,4L31,36.41V39Z"/><path d="M12,43H6a1,1,0,0,0-1,1v6a1,1,0,0,0,1,1h6a1,1,0,0,0,1-1V44A1,1,0,0,0,12,43Zm-1,6H7V45h4Z"/><path d="M15,50a1,1,0,0,0,1,1h6a1,1,0,0,0,1-1V44.41l1.71-1.7-1.42-1.42L21.59,43H16a1,1,0,0,0-1,1Zm6-1H18.41L21,46.41Zm-1.41-4L17,47.59V45Z"/><path d="M32,43H26a1,1,0,0,0-1,1v6a1,1,0,0,0,1,1h6a1,1,0,0,0,1-1V44A1,1,0,0,0,32,43Zm-1,6H27V45h4Z"/><path d="M61.39,50.89a5.8,5.8,0,0,0-1.5-1.16l.07,0L59.74,49H60a3,3,0,0,0,0-6H57.94l-.34-1.15A4,4,0,0,0,53.77,39H53V34a1,1,0,0,0-1-1H46a1,1,0,0,0-1,1v5h-.76a3.93,3.93,0,0,0-1.24.2V34a1,1,0,0,0-1-1H36a1,1,0,0,0-1,1v6a1,1,0,0,0,1,1h4.78a4.67,4.67,0,0,0-.38.85L40.06,43H38a3,3,0,0,0,0,6h.26l-.17.55A5.4,5.4,0,0,0,35,54.46V55H3V21H55V37h2V7a1,1,0,0,0-1-1H51V5a4,4,0,0,0-8,0V6H39V5a4,4,0,0,0-8,0V6H27V5a4,4,0,0,0-8,0V6H15V5A4,4,0,0,0,7,5V6H2A1,1,0,0,0,1,7V56a1,1,0,0,0,1,1H35v1a1,1,0,0,0,1,1h1v1a3,3,0,0,0,3,3h2a3,3,0,0,0,3-3V59h8v1a3,3,0,0,0,3,3h2a3,3,0,0,0,3-3V59h1a1,1,0,0,0,1-1V55A5.9,5.9,0,0,0,61.39,50.89ZM45,5a2,2,0,0,1,4,0V9a2,2,0,0,1-4,0ZM33,5a2,2,0,0,1,4,0V9a2,2,0,0,1-4,0ZM21,5a2,2,0,0,1,4,0V9a2,2,0,0,1-4,0ZM9,5a2,2,0,0,1,4,0V9A2,2,0,0,1,9,9ZM7,8V9a4,4,0,0,0,8,0V8h4V9a4,4,0,0,0,8,0V8h4V9a4,4,0,0,0,8,0V8h4V9a4,4,0,0,0,8,0V8h4V19H3V8ZM60,45a1,1,0,0,1,0,2h-.86l-.6-2ZM47,35h4v4H47ZM37,35h4v4H37Zm1,12a1,1,0,0,1,0-2h1.46l-.6,2Zm4.32-4.58A2,2,0,0,1,44.24,41h9.53a2,2,0,0,1,1.91,1.42l2,6.61q-.31,0-.63,0H40.34ZM43,60a1,1,0,0,1-1,1H40a1,1,0,0,1-1-1V59h4Zm16,0a1,1,0,0,1-1,1H56a1,1,0,0,1-1-1V59h4Zm2-3H37V54.46a3.39,3.39,0,0,1,.67-2A3.45,3.45,0,0,1,40.46,51H57a4,4,0,0,1,2.89,1.25A4,4,0,0,1,61,55Z"/><path d="M45,54a3,3,0,1,0-3,3A3,3,0,0,0,45,54Zm-3,1a1,1,0,1,1,1-1A1,1,0,0,1,42,55Z"/><path d="M59,54a3,3,0,1,0-3,3A3,3,0,0,0,59,54Zm-3,1a1,1,0,1,1,1-1A1,1,0,0,1,56,55Z"/></g></svg>
