<?xml version="1.0"?>
<svg xmlns="http://www.w3.org/2000/svg" viewBox="0 0 64 64" width="512" height="512"><g id="Layer_28" data-name="Layer 28"><path d="M2,29H13v1a1,1,0,0,0,1,1h6a1,1,0,0,0,.71-.29L23.41,28H30a1,1,0,0,0,1-1V13a1,1,0,0,0-1-1H23.41l-2.7-2.71A1,1,0,0,0,20,9H14a1,1,0,0,0-1,1v1H2a1,1,0,0,0-1,1V28A1,1,0,0,0,2,29ZM15,11h4.59l2.7,2.71A1,1,0,0,0,23,14h6V26H23a1,1,0,0,0-.71.29L19.59,29H15ZM3,13H13V27H3Z"/><path d="M22,24h4a1,1,0,0,0,1-1V17a1,1,0,0,0-1-1H22a1,1,0,0,0-1,1v6A1,1,0,0,0,22,24Zm1-6h2v4H23Z"/><path d="M62,11H51V10a1,1,0,0,0-1-1H34a1,1,0,0,0-1,1V30a1,1,0,0,0,1,1H50a1,1,0,0,0,1-1V29H62a1,1,0,0,0,1-1V12A1,1,0,0,0,62,11ZM35,15h2V25H35ZM49,29H35V27h3a1,1,0,0,0,1-1V14a1,1,0,0,0-1-1H35V11H49Zm12-2H51V13H61Z"/><path d="M8,17a3,3,0,1,0,3,3A3,3,0,0,0,8,17Zm0,4a1,1,0,1,1,1-1A1,1,0,0,1,8,21Z"/><path d="M56,23a3,3,0,1,0-3-3A3,3,0,0,0,56,23Zm0-4a1,1,0,1,1-1,1A1,1,0,0,1,56,19Z"/><path d="M62,35H45V34a1,1,0,0,0-1-1H28a1,1,0,0,0-.93.66l-.36-.37A1,1,0,0,0,26,33H20a1,1,0,0,0-1,1v1H2a1,1,0,0,0-1,1V52a1,1,0,0,0,1,1H19v1a1,1,0,0,0,1,1h6a1,1,0,0,0,.71-.29l.36-.37A1,1,0,0,0,28,55H44a1,1,0,0,0,1-1V53H62a1,1,0,0,0,1-1V36A1,1,0,0,0,62,35ZM3,51V37H19V51Zm26-3h2v1H29Zm2-2H29V42h2Zm0-6H29V39h2ZM25.59,53H21V35h4.59L27,36.41V51.59ZM43,53H29V51h3a1,1,0,0,0,1-1V38a1,1,0,0,0-1-1H29V35H43Zm18-2H45V37H61Z"/><path d="M11,41a3,3,0,1,0,3,3A3,3,0,0,0,11,41Zm0,4a1,1,0,1,1,1-1A1,1,0,0,1,11,45Z"/><path d="M53,47a3,3,0,1,0-3-3A3,3,0,0,0,53,47Zm0-4a1,1,0,1,1-1,1A1,1,0,0,1,53,43Z"/></g></svg>
