<?xml version="1.0"?>
<svg xmlns="http://www.w3.org/2000/svg" viewBox="0 0 64 64" width="512" height="512"><g id="Layer_19" data-name="Layer 19"><path d="M32,1A31,31,0,1,0,63,32,31,31,0,0,0,32,1Zm0,60A29,29,0,0,1,3,33H7V31H3a28.82,28.82,0,0,1,7.78-18.77l2.48,2.48,1.42-1.42-2.48-2.48A28.82,28.82,0,0,1,31,3V6h2V3a28.82,28.82,0,0,1,18.77,7.78l-2.48,2.48,1.42,1.42,2.48-2.48A28.82,28.82,0,0,1,61,31H58v2h3A29,29,0,0,1,32,61Z"/><path d="M8.09,31h6a1,1,0,0,0,1-.89,16.87,16.87,0,0,1,3.55-8.62,1,1,0,0,0-.08-1.33L14.3,15.89a1,1,0,0,0-1.47.07,24.81,24.81,0,0,0-5.74,14,1.05,1.05,0,0,0,.26.76A1,1,0,0,0,8.09,31Zm5.59-12.9L16.55,21a19,19,0,0,0-3.31,8h-4A22.78,22.78,0,0,1,13.68,18.1Z"/><path d="M55.91,33h-6a1,1,0,0,0-1,.89,17,17,0,0,1-3.55,8.62,1,1,0,0,0,.08,1.33l4.28,4.27a1,1,0,0,0,.7.29h.05a1,1,0,0,0,.72-.36,24.81,24.81,0,0,0,5.74-14,1.05,1.05,0,0,0-.26-.76A1,1,0,0,0,55.91,33ZM50.32,45.9,47.45,43a19,19,0,0,0,3.31-8h4A22.78,22.78,0,0,1,50.32,45.9Z"/><path d="M18.66,42.51a17,17,0,0,1-3.55-8.62,1,1,0,0,0-1-.89h-6a1,1,0,0,0-.74.32,1.05,1.05,0,0,0-.26.76,24.81,24.81,0,0,0,5.74,14,1,1,0,0,0,.72.36h0a1,1,0,0,0,.7-.29l4.28-4.27A1,1,0,0,0,18.66,42.51Zm-5,3.39A22.78,22.78,0,0,1,9.2,35h4a19,19,0,0,0,3.31,8Z"/><path d="M33.89,15.11a16.87,16.87,0,0,1,8.62,3.55,1,1,0,0,0,.62.21,1,1,0,0,0,.71-.29l4.27-4.27a1,1,0,0,0,.29-.76,1,1,0,0,0-.36-.72,24.81,24.81,0,0,0-14-5.74,1,1,0,0,0-.76.26,1,1,0,0,0-.32.74v6A1,1,0,0,0,33.89,15.11ZM35,9.2a22.78,22.78,0,0,1,10.9,4.48L43,16.55a18.9,18.9,0,0,0-8-3.31Z"/><path d="M20.16,18.58a1,1,0,0,0,.71.29,1,1,0,0,0,.62-.21,16.87,16.87,0,0,1,8.62-3.55,1,1,0,0,0,.89-1v-6a1,1,0,0,0-.32-.74,1,1,0,0,0-.76-.26,24.81,24.81,0,0,0-14,5.74,1,1,0,0,0-.36.72,1,1,0,0,0,.29.76ZM29,9.2v4a18.9,18.9,0,0,0-8,3.31L18.1,13.68A22.78,22.78,0,0,1,29,9.2Z"/><path d="M50.45,15.6a1,1,0,0,0-.75.29l-4.28,4.27a1,1,0,0,0-.08,1.33,16.87,16.87,0,0,1,3.55,8.62,1,1,0,0,0,1,.89h6a1,1,0,0,0,.74-.32,1.05,1.05,0,0,0,.26-.76,24.81,24.81,0,0,0-5.74-14A1,1,0,0,0,50.45,15.6ZM50.76,29a19,19,0,0,0-3.31-8l2.87-2.86A22.78,22.78,0,0,1,54.8,29Z"/><path d="M46,48H18a1,1,0,0,0-1,1v4a1,1,0,0,0,1,1H46a1,1,0,0,0,1-1V49A1,1,0,0,0,46,48Zm-1,4H19V50H45Z"/><path d="M29.06,44.61a3.8,3.8,0,0,0,5.88,0,4.6,4.6,0,0,0,1-3.71L33,22.84a1,1,0,0,0-2,0l-3,18.06A4.6,4.6,0,0,0,29.06,44.61Zm1-3.38,2-12,2,12a2.59,2.59,0,0,1-.54,2.08,1.84,1.84,0,0,1-2.84,0A2.59,2.59,0,0,1,30,41.23Z"/></g></svg>
