<svg height="512" viewBox="0 0 64 64" width="512" xmlns="http://www.w3.org/2000/svg"><g id="Layer_4" data-name="Layer 4"><path d="m32 1a31 31 0 1 0 31 31 31 31 0 0 0 -31-31zm0 60a29 29 0 1 1 29-29 29 29 0 0 1 -29 29z"/><path d="m32 7a25 25 0 1 0 25 25 25 25 0 0 0 -25-25zm22.91 27h-13.11a10.2 10.2 0 0 0 .2-2 10 10 0 0 0 -1.85-5.78l12.22-4.89a23 23 0 0 1 2.63 10.67c0 .67 0 1.34-.09 2zm-22.91 6a8 8 0 1 1 8-8 8 8 0 0 1 -8 8zm0-31a23 23 0 0 1 19.35 10.58l-12.62 5.05a9.93 9.93 0 0 0 -13.46 0l-12.62-5.05a23 23 0 0 1 19.35-10.58zm-20.37 12.33 12.22 4.89a10 10 0 0 0 -1.85 5.78 10.2 10.2 0 0 0 .2 2h-13.11c-.09-.66-.09-1.33-.09-2a23 23 0 0 1 2.63-10.67zm-2.27 14.67h13.48a10 10 0 0 0 3.92 4.5l-4.42 12.37a23.08 23.08 0 0 1 -12.98-16.87zm14.83 17.63 4.38-12.25a9.8 9.8 0 0 0 6.86 0l4.38 12.25a22.95 22.95 0 0 1 -15.62 0zm17.47-.76-4.42-12.37a10 10 0 0 0 3.92-4.5h13.48a23.08 23.08 0 0 1 -12.98 16.87z"/><path d="m32 28a4 4 0 1 0 4 4 4 4 0 0 0 -4-4zm0 6a2 2 0 1 1 2-2 2 2 0 0 1 -2 2z"/><path d="m44 26h6v2h-6z"/><path d="m14 26h6v2h-6z"/><path d="m44 30h6v2h-6z"/><path d="m14 30h6v2h-6z"/></g></svg>