<?xml version="1.0"?>
<svg xmlns="http://www.w3.org/2000/svg" viewBox="0 0 64 64" width="512" height="512"><g id="Layer_14" data-name="Layer 14"><path d="M55.71,17.29l-12-12A1,1,0,0,0,43,5H36V2a1,1,0,0,0-1-1H29a1,1,0,0,0-1,1V5H21a1,1,0,0,0-.71.29l-12,12A1,1,0,0,0,8,18V38a1,1,0,0,0,.29.71l12,12A1,1,0,0,0,21,51h7V63h2V51h4V63h2V51h7a1,1,0,0,0,.71-.29l12-12A1,1,0,0,0,56,38V18A1,1,0,0,0,55.71,17.29ZM30,3h4V5H30ZM54,37.59,42.59,49H21.41L10,37.59V18.41L21.41,7H42.59L54,18.41Z"/><path d="M41,9H23a1,1,0,0,0-.71.29l-10,10A1,1,0,0,0,12,20V36a1,1,0,0,0,.29.71l10,10A1,1,0,0,0,23,47H41a1,1,0,0,0,.71-.29l10-10A1,1,0,0,0,52,36V20a1,1,0,0,0-.29-.71l-10-10A1,1,0,0,0,41,9Zm9,26.59L40.59,45H23.41L14,35.59V20.41L23.41,11H40.59L50,20.41Z"/><path d="M19,21a3,3,0,0,0-3,3v2a3,3,0,0,0,3,3,1,1,0,0,1,1,1v2a1,1,0,0,1-2,0V31H16v1a3,3,0,0,0,6,0V30a3,3,0,0,0-3-3,1,1,0,0,1-1-1V24a1,1,0,0,1,2,0v1h2V24A3,3,0,0,0,19,21Z"/><polygon points="23 23 26 23 26 35 28 35 28 23 31 23 31 21 23 21 23 23"/><path d="M35.5,21A3.5,3.5,0,0,0,32,24.5v7a3.5,3.5,0,0,0,7,0v-7A3.5,3.5,0,0,0,35.5,21ZM37,31.5a1.5,1.5,0,0,1-3,0v-7a1.5,1.5,0,0,1,3,0Z"/><path d="M43,29h1a4,4,0,0,0,0-8H42a1,1,0,0,0-1,1V35h2Zm0-6h1a2,2,0,0,1,0,4H43Z"/></g></svg>
