<?xml version="1.0"?>
<svg xmlns="http://www.w3.org/2000/svg" viewBox="0 0 64 64" width="512" height="512"><g id="Layer_24" data-name="Layer 24"><path d="M14,49a1,1,0,0,0-1,1v4a1,1,0,0,0,1,1H26a1,1,0,0,0,1-1V50a1,1,0,0,0-1-1H24.87L23,35.86A1,1,0,0,0,22,35H18a1,1,0,0,0-1,.86L15.13,49Zm11,4H15V51H25Zm-2.72-8H17.72l.58-4h3.4Zm-1.15-8,.29,2H18.58l.29-2ZM17.44,47h5.12l.29,2h-5.7Z"/><path d="M38,33H50a1,1,0,0,0,1-1V28a1,1,0,0,0-1-1H48.87L47,13.86A1,1,0,0,0,46,13H42a1,1,0,0,0-1,.86L39.13,27H38a1,1,0,0,0-1,1v4A1,1,0,0,0,38,33Zm8.28-10H41.72l.58-4h3.4Zm-1.15-8,.29,2H42.58l.29-2ZM41.44,25h5.12l.29,2h-5.7ZM39,29H49v2H39Z"/><path d="M56,2a1.05,1.05,0,0,0-.08-.35A1,1,0,0,0,55,1H9c-.93,0-1,.78-1,1.61L4,61.93a1,1,0,0,0,.27.75A1,1,0,0,0,5,63H59a1,1,0,0,0,.73-.32,1,1,0,0,0,.27-.75C60,61.34,56.05,2.76,56,2Zm-5.37,9.49L53.93,61H10.07c.49-7.4,3.41-51.08,3.87-58H50.1C50.15,4.31,50.32,6.76,50.63,11.44ZM9.94,3h2L8.07,61h-2C6.56,53.58,9.47,9.94,9.94,3Zm46,58c-.46-6.94-3.37-50.61-3.86-58h2c0,1.31.22,3.76.53,8.44L57.93,61Z"/><path d="M30,57h4a1,1,0,0,0,1-1V47a1,1,0,0,0-1-1H30a1,1,0,0,0-1,1v9A1,1,0,0,0,30,57Zm1-9h2v7H31Z"/><path d="M30,44h4a1,1,0,0,0,1-1V34a1,1,0,0,0-1-1H30a1,1,0,0,0-1,1v9A1,1,0,0,0,30,44Zm1-9h2v7H31Z"/><path d="M30,31h4a1,1,0,0,0,1-1V21a1,1,0,0,0-1-1H30a1,1,0,0,0-1,1v9A1,1,0,0,0,30,31Zm1-9h2v7H31Z"/><path d="M30,18h4a1,1,0,0,0,1-1V8a1,1,0,0,0-1-1H30a1,1,0,0,0-1,1v9A1,1,0,0,0,30,18Zm1-9h2v7H31Z"/></g></svg>
