<?xml version="1.0"?>
<svg xmlns="http://www.w3.org/2000/svg" viewBox="0 0 64 64" width="512" height="512"><g id="Layer_17" data-name="Layer 17"><path d="M15,5a5,5,0,1,0,5,5A5,5,0,0,0,15,5Zm0,8a3,3,0,1,1,3-3A3,3,0,0,1,15,13Z"/><path d="M15,17a5,5,0,1,0,5,5A5,5,0,0,0,15,17Zm0,8a3,3,0,1,1,3-3A3,3,0,0,1,15,25Z"/><path d="M15,29a5,5,0,1,0,5,5A5,5,0,0,0,15,29Zm0,8a3,3,0,1,1,3-3A3,3,0,0,1,15,37Z"/><path d="M63,63V61H58.82A3,3,0,0,0,59,60V59h3a1,1,0,0,0,1-1V54a1,1,0,0,0-1-1H61V51.7a8.7,8.7,0,0,0-1.91-5.43A8.35,8.35,0,0,0,57,44.4h0l-.41-1.45A4,4,0,0,0,56,35H54.37l-.84-3a4,4,0,0,0-3.89-3H38.36a4,4,0,0,0-3.88,3l-.85,3H32a4,4,0,0,0-.62,7.94L31,44.39h0a8.35,8.35,0,0,0-2.07,1.87A8.7,8.7,0,0,0,27,51.7V53H26a1,1,0,0,0-1,1v4a1,1,0,0,0,1,1h3v1a3,3,0,0,0,.18,1H19V43h4a1,1,0,0,0,1-1V40h2a1,1,0,0,0,1-.76l2-8a1,1,0,0,0-.18-.86A1,1,0,0,0,28,30H24V27h2a1,1,0,0,0,1-.76l2-8a1,1,0,0,0-.18-.86A1,1,0,0,0,28,17H24V14h2a1,1,0,0,0,1-.76l2-8a1,1,0,0,0-.18-.86A1,1,0,0,0,28,4H24V2a1,1,0,0,0-1-1H7A1,1,0,0,0,6,2V4H2a1,1,0,0,0-.79.38A1,1,0,0,0,1,5.24l2,8A1,1,0,0,0,4,14H6v3H2a1,1,0,0,0-.79.38,1,1,0,0,0-.18.86l2,8A1,1,0,0,0,4,27H6v3H2a1,1,0,0,0-.79.38,1,1,0,0,0-.18.86l2,8A1,1,0,0,0,4,40H6v2a1,1,0,0,0,1,1h4V61H1v2ZM26.72,32l-1.5,6H24V32Zm0-13-1.5,6H24V19Zm0-13-1.5,6H24V6ZM4.78,12,3.28,6H6v6Zm0,13-1.5-6H6v6Zm0,13-1.5-6H6v6ZM56,37a2,2,0,0,1,.07,4l-1.14-4ZM38.36,31H49.64a2,2,0,0,1,2,1.56l.12.44H36.28l.13-.48A2,2,0,0,1,38.36,31ZM30,39a2,2,0,0,1,2-2h1.07l-1.14,4A2,2,0,0,1,30,39Zm5.71-4H52.29l2.36,8.34A8.35,8.35,0,0,0,52.3,43H35.7a8.35,8.35,0,0,0-2.35.34ZM29,51.7A6.71,6.71,0,0,1,35.7,45H52.3A6.71,6.71,0,0,1,59,51.7V53H29ZM27,55H61v2H27Zm12,4H49v1a3,3,0,0,0,.18,1H38.82A3,3,0,0,0,39,60ZM8,3H22V41H8Zm5,40h4V61H13ZM32,61a1,1,0,0,1-1-1V59h6v1a1,1,0,0,1-1,1Zm20,0a1,1,0,0,1-1-1V59h6v1a1,1,0,0,1-1,1Z"/><path d="M36,46c-2.24,0-4,1.32-4,3s1.76,3,4,3,4-1.32,4-3S38.24,46,36,46Zm0,4c-1.22,0-2-.59-2-1s.78-1,2-1,2,.59,2,1S37.22,50,36,50Z"/><path d="M52,46c-2.24,0-4,1.32-4,3s1.76,3,4,3,4-1.32,4-3S54.24,46,52,46Zm0,4c-1.22,0-2-.59-2-1s.78-1,2-1,2,.59,2,1S53.22,50,52,50Z"/></g></svg>
