<svg height="512" viewBox="0 0 64 64" width="512" xmlns="http://www.w3.org/2000/svg"><g id="Layer_32" data-name="Layer 32"><path d="m32 1a10 10 0 1 0 10 10 10 10 0 0 0 -10-10zm0 18a8 8 0 1 1 8-8 8 8 0 0 1 -8 8z"/><path d="m11 1a10 10 0 1 0 10 10 10 10 0 0 0 -10-10zm0 18a8 8 0 1 1 8-8 8 8 0 0 1 -8 8z"/><path d="m53 21a10 10 0 1 0 -10-10 10 10 0 0 0 10 10zm0-18a8 8 0 1 1 -8 8 8 8 0 0 1 8-8z"/><path d="m32 4a7 7 0 1 0 7 7 7 7 0 0 0 -7-7zm-5 7a5 5 0 0 1 7.75-4.17l-6.92 6.92a5 5 0 0 1 -.83-2.75zm5 5a5 5 0 0 1 -2.75-.83l6.92-6.92a5 5 0 0 1 -4.17 7.75z"/><path d="m11 4a7 7 0 1 0 7 7 7 7 0 0 0 -7-7zm0 12a5 5 0 1 1 5-5 5 5 0 0 1 -5 5z"/><path d="m53 18a7 7 0 1 0 -7-7 7 7 0 0 0 7 7zm0-12a5 5 0 1 1 -5 5 5 5 0 0 1 5-5z"/><path d="m52 10.41v4.59h2v-4.59l1.29 1.3 1.42-1.42-3-3a1 1 0 0 0 -1.42 0l-3 3 1.42 1.42z"/><path d="m8 10h6v2h-6z"/><path d="m32 22a10 10 0 1 0 10 10 10 10 0 0 0 -10-10zm0 18a8 8 0 1 1 8-8 8 8 0 0 1 -8 8z"/><path d="m11 22a10 10 0 1 0 10 10 10 10 0 0 0 -10-10zm0 18a8 8 0 1 1 8-8 8 8 0 0 1 -8 8z"/><path d="m53 22a10 10 0 1 0 10 10 10 10 0 0 0 -10-10zm0 18a8 8 0 1 1 8-8 8 8 0 0 1 -8 8z"/><path d="m32 25a7 7 0 1 0 7 7 7 7 0 0 0 -7-7zm0 12a5 5 0 1 1 5-5 5 5 0 0 1 -5 5z"/><path d="m11 25a7 7 0 1 0 7 7 7 7 0 0 0 -7-7zm2.75 2.83-2.75 2.76-2.75-2.76a5 5 0 0 1 5.5 0zm-7.75 4.17a5 5 0 0 1 .83-2.75l2.76 2.75-2.76 2.75a5 5 0 0 1 -.83-2.75zm2.25 4.17 2.75-2.76 2.75 2.76a5 5 0 0 1 -5.5 0zm6.92-1.42-2.76-2.75 2.76-2.75a5 5 0 0 1 0 5.5z"/><path d="m53 25a7 7 0 1 0 7 7 7 7 0 0 0 -7-7zm0 12a5 5 0 1 1 5-5 5 5 0 0 1 -5 5z"/><path d="m31 28h2v5h-2z"/><path d="m31 34h2v2h-2z"/><path d="m32 43a10 10 0 1 0 10 10 10 10 0 0 0 -10-10zm0 18a8 8 0 1 1 8-8 8 8 0 0 1 -8 8z"/><path d="m11 43a10 10 0 1 0 10 10 10 10 0 0 0 -10-10zm0 18a8 8 0 1 1 8-8 8 8 0 0 1 -8 8z"/><path d="m53 43a10 10 0 1 0 10 10 10 10 0 0 0 -10-10zm0 18a8 8 0 1 1 8-8 8 8 0 0 1 -8 8z"/><path d="m32 46a7 7 0 1 0 7 7 7 7 0 0 0 -7-7zm0 12a5 5 0 1 1 5-5 5 5 0 0 1 -5 5z"/><path d="m11 46a7 7 0 1 0 7 7 7 7 0 0 0 -7-7zm0 12a5 5 0 1 1 5-5 5 5 0 0 1 -5 5z"/><path d="m53 46a7 7 0 1 0 7 7 7 7 0 0 0 -7-7zm0 12a5 5 0 1 1 5-5 5 5 0 0 1 -5 5z"/><path d="m11.29 50.71.3.29h-1.59a1 1 0 0 0 -1 1v5h2v-4h.59l-.3.29 1.42 1.42 2-2a1 1 0 0 0 0-1.42l-2-2z"/><path d="m33 51h-1.59l.3-.29-1.42-1.42-2 2a1 1 0 0 0 0 1.42l2 2 1.42-1.42-.3-.29h.59v4h2v-5a1 1 0 0 0 -1-1z"/><path d="m53.5 49h-1.5a1 1 0 0 0 -1 1v7h2v-3h.5a2.5 2.5 0 0 0 0-5zm0 3h-.5v-1h.5a.5.5 0 0 1 0 1z"/><path d="m52.29 29.71 1.3 1.29h-4.59v2h4.59l-1.3 1.29 1.42 1.42 3-3a1 1 0 0 0 0-1.42l-3-3z"/></g></svg>