<?xml version="1.0"?>
<svg xmlns="http://www.w3.org/2000/svg" viewBox="0 0 64 64" width="512" height="512"><g id="Layer_9" data-name="Layer 9"><path d="M12,23a3,3,0,1,0,3-3A3,3,0,0,0,12,23Zm4,0a1,1,0,1,1-1-1A1,1,0,0,1,16,23Z"/><path d="M36.38,53h-.14a2.6,2.6,0,0,1-2-1A6,6,0,0,0,37,47V45a6,6,0,0,0-12,0v2a6,6,0,0,0,2.77,5,2.6,2.6,0,0,1-2,1h-.14A4.62,4.62,0,0,0,21,57.62,4.62,4.62,0,0,0,16.38,53h-.14a2.6,2.6,0,0,1-2-1A6,6,0,0,0,17,47V45A6,6,0,0,0,5,45v2a6,6,0,0,0,2.77,5,2.6,2.6,0,0,1-2,1H5.62A4.62,4.62,0,0,0,1,57.62V62a1,1,0,0,0,1,1H20a1,1,0,0,0,1-1,1,1,0,0,0,1,1H40a1,1,0,0,0,1-1V57.62A4.62,4.62,0,0,0,36.38,53ZM7,45a4,4,0,0,1,8,0v2a4,4,0,0,1-8,0Zm4,8a5.92,5.92,0,0,0,1.34-.16,4.44,4.44,0,0,0,1.13,1.23,3.92,3.92,0,0,1-4.94,0,4.44,4.44,0,0,0,1.13-1.23A5.92,5.92,0,0,0,11,53Zm8,8H17V59H15v2H7V59H5v2H3V57.62A2.62,2.62,0,0,1,5.62,55h.14a4.77,4.77,0,0,0,.76-.07l.36.36a5.82,5.82,0,0,0,8.24,0l.36-.36a4.77,4.77,0,0,0,.76.07h.14A2.62,2.62,0,0,1,19,57.62Zm8-16a4,4,0,0,1,8,0v2a4,4,0,0,1-8,0Zm4,8a5.92,5.92,0,0,0,1.34-.16,4.44,4.44,0,0,0,1.13,1.23,3.92,3.92,0,0,1-4.94,0,4.44,4.44,0,0,0,1.13-1.23A5.92,5.92,0,0,0,31,53Zm8,8H37V59H35v2H27V59H25v2H23V57.62A2.62,2.62,0,0,1,25.62,55h.14a4.77,4.77,0,0,0,.76-.07l.36.36a5.82,5.82,0,0,0,8.24,0l.36-.36a4.77,4.77,0,0,0,.76.07h.14A2.62,2.62,0,0,1,39,57.62Z"/><path d="M58,23H56.46a5.87,5.87,0,0,0,1.19-2H58a3,3,0,0,0,2-5.22V15a8,8,0,0,0-16,0v.78A3,3,0,0,0,46,21h.35a5.87,5.87,0,0,0,1.19,2h-6.8a8,8,0,0,0-3.83-5l-.35-1H37a3,3,0,0,0,0-6H34.53l-1-2.95A4,4,0,0,0,29.64,5H18.36a4,4,0,0,0-3.87,3l-1,3H11a3,3,0,0,0,0,6h.44l-.35,1A8,8,0,0,0,7,25v3a1,1,0,0,0,1,1H9v1a3,3,0,0,0,3,3h4a3,3,0,0,0,3-3V29h8V27H9V25a6,6,0,0,1,6-6H33a6,6,0,0,1,5.65,4H36a3,3,0,0,0-6,0,3.27,3.27,0,0,0,.09.7A3,3,0,0,0,32,29h5v1a1,1,0,0,1-1,1H32a1,1,0,0,1-1-1H29a3,3,0,0,0,3,3h4a3,3,0,0,0,3-3V29h4a2,2,0,0,1,2,2v4H3V3H53V6h2V2a1,1,0,0,0-1-1H2A1,1,0,0,0,1,2V36a1,1,0,0,0,1,1H45V57.18A3,3,0,0,0,43,60v2a1,1,0,0,0,1,1H60a1,1,0,0,0,1-1V60a3,3,0,0,0-2-2.82V46a4,4,0,0,0,4-4V28A5,5,0,0,0,58,23ZM17,30a1,1,0,0,1-1,1H12a1,1,0,0,1-1-1V29h6ZM37,13a1,1,0,0,1,0,2H35.88l-.67-2ZM18.36,7H29.64a2,2,0,0,1,2,1.61l.13.39H16.25l.16-.48A2,2,0,0,1,18.36,7ZM11,15a1,1,0,0,1,0-2h1.79l-.68,2Zm4,2a7.48,7.48,0,0,0-1.5.15L15.58,11H32.42l2.08,6.15A7.48,7.48,0,0,0,33,17Zm39,8a2,2,0,0,1-4,0Zm4-6V17a1,1,0,0,1,0,2ZM45,18a1,1,0,0,1,1-1v2A1,1,0,0,1,45,18Zm1-3a6,6,0,0,1,12,0H55.41l-1.7-1.71a1,1,0,0,0-1.42,0L50.59,15H46Zm2,4V17h3a1,1,0,0,0,.71-.29L53,15.41l1.29,1.3A1,1,0,0,0,55,17h1v2a4,4,0,0,1-8,0ZM33,22a1,1,0,0,1,1,1H32A1,1,0,0,1,33,22Zm-2,4a1,1,0,0,1,1-1h1v2H32A1,1,0,0,1,31,26Zm12,1H35V25H48a4,4,0,0,0,8,0h2a3,3,0,0,1,3,3V40H59V29H57V40H47V31A4,4,0,0,0,43,27Zm8,34H45V60a1,1,0,0,1,1-1h5Zm0-15V57H47V42H57V57H53V46Zm8,15H53V59h5a1,1,0,0,1,1,1Zm0-17V42h2A2,2,0,0,1,59,44Z"/></g></svg>
