<?xml version="1.0"?>
<svg xmlns="http://www.w3.org/2000/svg" viewBox="0 0 64 64" width="512" height="512"><g id="Layer_13" data-name="Layer 13"><path d="M29.42,28.81A1,1,0,0,0,30,29a.92.92,0,0,0,.46-.11A1,1,0,0,0,31,28V20.18a1,1,0,0,0-1.17-1,13,13,0,0,0-7,3.56,1,1,0,0,0-.29.79,1,1,0,0,0,.42.74ZM29,21.43v4.63l-3.82-2.69A11.05,11.05,0,0,1,29,21.43Z"/><path d="M34.9,32.11a1,1,0,0,0,.42.86l7,4.92a1,1,0,0,0,.57.18,1.09,1.09,0,0,0,.26,0,1,1,0,0,0,.65-.55A12.79,12.79,0,0,0,45,32a13,13,0,0,0-.83-4.55,1,1,0,0,0-1.45-.51l-7.34,4.35A1,1,0,0,0,34.9,32.11Zm7.76-2.81A11.22,11.22,0,0,1,43,32a10.85,10.85,0,0,1-.59,3.53l-4.68-3.3Z"/><path d="M29.1,31.89a1,1,0,0,0-.42-.86l-7-4.92a1,1,0,0,0-1.48.4A12.79,12.79,0,0,0,19,32a13,13,0,0,0,.83,4.55,1,1,0,0,0,.61.6,1.26,1.26,0,0,0,.33.05,1,1,0,0,0,.51-.14l7.34-4.35A1,1,0,0,0,29.1,31.89ZM21.34,34.7A11.22,11.22,0,0,1,21,32a10.85,10.85,0,0,1,.59-3.53l4.68,3.3Z"/><path d="M30.5,34.79a1,1,0,0,0-1,0L22.43,39a1,1,0,0,0-.25,1.51,13,13,0,0,0,7.65,4.31H30a1,1,0,0,0,1-1V35.65A1,1,0,0,0,30.5,34.79ZM29,42.57a11,11,0,0,1-4.47-2.51L29,37.41Z"/><path d="M34.58,35.19A1,1,0,0,0,33,36v7.81a1,1,0,0,0,1,1h.17a13,13,0,0,0,7-3.56,1,1,0,0,0,.29-.79,1,1,0,0,0-.42-.74ZM35,42.57V37.94l3.82,2.69A11.05,11.05,0,0,1,35,42.57Z"/><path d="M33.5,29.21a1,1,0,0,0,1,0L41.57,25a1,1,0,0,0,.25-1.51,13,13,0,0,0-7.65-4.31,1,1,0,0,0-.82.23,1,1,0,0,0-.35.76v8.17A1,1,0,0,0,33.5,29.21ZM35,21.43a11,11,0,0,1,4.47,2.51L35,26.59Z"/><path d="M32,1A31,31,0,1,0,63,32,31,31,0,0,0,32,1Zm0,60A29,29,0,1,1,61,32,29,29,0,0,1,32,61Z"/><path d="M32,15A17,17,0,1,0,49,32,17,17,0,0,0,32,15Zm0,32A15,15,0,1,1,47,32,15,15,0,0,1,32,47Z"/><circle cx="32" cy="32" r="2"/><path d="M32,7V9A23,23,0,0,1,55,32h2A25,25,0,0,0,32,7Z"/><path d="M9,32H7A25,25,0,0,0,32,57V55A23,23,0,0,1,9,32Z"/></g></svg>
