<svg height="512" viewBox="0 0 64 64" width="512" xmlns="http://www.w3.org/2000/svg"><g id="Layer_23" data-name="Layer 23"><path d="m22 22h-4a1 1 0 0 0 -1 1v18a1 1 0 0 0 1 1h4a1 1 0 0 0 1-1v-18a1 1 0 0 0 -1-1zm-1 18h-2v-16h2z"/><path d="m30 22h-4a1 1 0 0 0 -1 1v18a1 1 0 0 0 1 1h4a1 1 0 0 0 1-1v-18a1 1 0 0 0 -1-1zm-1 18h-2v-16h2z"/><path d="m38 22h-4a1 1 0 0 0 -1 1v18a1 1 0 0 0 1 1h4a1 1 0 0 0 1-1v-18a1 1 0 0 0 -1-1zm-1 18h-2v-16h2z"/><path d="m46 22h-4a1 1 0 0 0 -1 1v18a1 1 0 0 0 1 1h4a1 1 0 0 0 1-1v-18a1 1 0 0 0 -1-1zm-1 18h-2v-16h2z"/><path d="m9 4h-2v-2.85h-2v62h2v-3.15h2v3.15h2v-62h-2zm0 2v4h-2v-4zm-2 40v-4h2v4zm2 2v4h-2v-4zm-2-8v-4h2v4zm0-6v-4h2v4zm0-6v-4h2v4zm0-6v-4h2v4zm0-6v-4h2v4zm0 42v-4h2v4z"/><path d="m13 1.15h2v62h-2z"/><path d="m49 1.15h2v62h-2z"/><path d="m57 1.15v2.85h-2v-2.85h-2v62h2v-3.15h2v3.15h2v-62zm0 4.85v4h-2v-4zm-2 40v-4h2v4zm2 2v4h-2v-4zm-2-8v-4h2v4zm0-6v-4h2v4zm0-6v-4h2v4zm0-6v-4h2v4zm0-6v-4h2v4zm0 42v-4h2v4z"/></g></svg>